<svg width="385" height="342" viewBox="0 0 385 342" fill="none" xmlns="http://www.w3.org/2000/svg">
<rect x="0.723053" y="0.869228" width="87.6956" height="90.7753" rx="18.3308" transform="matrix(0.995521 0.0945422 -0.0882921 0.996095 219.978 91.0981)" fill="white"/>
<path d="M237.075 123.888L234.659 151.142L232.718 150.958L235.133 123.704L237.075 123.888ZM245.198 124.659L251.798 150.22L251.997 150.239L262.98 126.348L265.042 126.544L252.771 152.862L250.589 152.655L243.15 124.465L245.198 124.659ZM268.687 154.374L271.103 127.12L279.629 127.929C281.429 128.1 282.928 128.587 284.126 129.39C285.325 130.192 286.203 131.229 286.761 132.498C287.319 133.768 287.528 135.192 287.388 136.772C287.249 138.342 286.794 139.694 286.023 140.829C285.252 141.955 284.208 142.795 282.889 143.35C281.57 143.904 280.02 144.097 278.237 143.928L270.723 143.214L270.883 141.404L278.345 142.113C279.754 142.247 280.969 142.107 281.99 141.694C283.01 141.281 283.813 140.642 284.399 139.776C284.996 138.902 285.349 137.839 285.46 136.589C285.572 135.329 285.412 134.209 284.98 133.228C284.558 132.24 283.877 131.442 282.939 130.834C282.01 130.217 280.836 129.842 279.417 129.707L272.887 129.087L270.629 154.558L268.687 154.374ZM281.246 143.126L286.855 156.099L284.608 155.886L279.051 142.918L281.246 143.126Z" fill="#4E9FFF"/>
<rect x="0.723053" y="0.869228" width="87.6956" height="90.7753" rx="18.3308" transform="matrix(0.995521 0.0945422 -0.0882921 0.996095 219.978 91.0981)" stroke="#4E9FFF" stroke-width="1.59398"/>
<rect x="0.723053" y="0.869228" width="87.6956" height="90.7753" rx="18.3308" transform="matrix(0.995521 0.0945422 -0.0882921 0.996095 105.214 282.635)" fill="white"/>
<path d="M122.312 315.425L119.896 342.68L117.954 342.495L120.37 315.241L122.312 315.425ZM130.434 316.196L137.034 341.757L137.234 341.776L148.217 317.885L150.278 318.081L138.007 344.4L135.826 344.192L128.386 316.002L130.434 316.196ZM153.924 345.911L156.34 318.657L164.865 319.466C166.665 319.637 168.164 320.124 169.363 320.927C170.561 321.729 171.44 322.766 171.998 324.035C172.556 325.305 172.765 326.73 172.625 328.309C172.486 329.879 172.03 331.232 171.259 332.366C170.489 333.492 169.444 334.332 168.125 334.887C166.806 335.441 165.256 335.634 163.474 335.465L155.959 334.751L156.12 332.941L163.581 333.65C164.991 333.784 166.206 333.644 167.226 333.231C168.246 332.818 169.049 332.179 169.636 331.313C170.232 330.439 170.585 329.377 170.696 328.126C170.808 326.866 170.648 325.746 170.216 324.765C169.794 323.777 169.114 322.979 168.175 322.371C167.246 321.755 166.072 321.379 164.654 321.244L158.123 320.624L155.866 346.096L153.924 345.911ZM166.482 334.664L172.092 347.636L169.844 347.423L164.287 334.455L166.482 334.664Z" fill="#4E9FFF"/>
<rect x="0.723053" y="0.869228" width="87.6956" height="90.7753" rx="18.3308" transform="matrix(0.995521 0.0945422 -0.0882921 0.996095 105.214 282.635)" stroke="#4E9FFF" stroke-width="1.59398"/>
<rect x="0.632671" y="0.760574" width="87.8949" height="90.9746" rx="18.4304" transform="matrix(0.995521 0.0945422 -0.0882921 0.996095 316.942 100.316)" fill="white"/>
<path d="M337.235 168.51L337.851 168.841L338.15 168.278L337.614 167.927L337.235 168.51ZM330.956 176.163L330.481 175.649L329.074 176.95L330.993 176.86L330.956 176.163ZM344.686 172.223L344.92 171.567L344.638 171.465L344.371 171.599L344.686 172.223ZM388.545 150.41C387.268 164.818 372.088 175.366 354.378 173.684L354.255 175.073C372.477 176.804 388.568 165.949 389.934 150.542L388.545 150.41ZM359.04 121.09C376.75 122.771 389.822 136.003 388.545 150.41L389.934 150.542C391.299 135.135 377.385 121.431 359.163 119.7L359.04 121.09ZM324.873 144.363C326.15 129.956 341.33 119.408 359.04 121.09L359.163 119.7C340.941 117.97 324.85 128.825 323.485 144.232L324.873 144.363ZM337.614 167.927C329.142 162.384 324.052 153.629 324.873 144.363L323.485 144.232C322.608 154.121 328.05 163.333 336.856 169.094L337.614 167.927ZM331.43 176.676C334.926 173.441 336.829 170.763 337.851 168.841L336.619 168.179C335.681 169.943 333.881 172.501 330.481 175.649L331.43 176.676ZM344.371 171.599C340.743 173.415 335.052 175.27 330.918 175.466L330.993 176.86C335.38 176.652 341.263 174.719 345.001 172.848L344.371 171.599ZM354.378 173.684C351.044 173.367 347.869 172.639 344.92 171.567L344.452 172.879C347.512 173.991 350.803 174.746 354.255 175.073L354.378 173.684Z" fill="#4E9FFF"/>
<rect x="0.632671" y="0.760574" width="87.8949" height="90.9746" rx="18.4304" transform="matrix(0.995521 0.0945422 -0.0882921 0.996095 316.942 100.316)" stroke="#4E9FFF" stroke-width="1.39473"/>
<rect x="0.632671" y="0.760574" width="87.8949" height="90.9746" rx="18.4304" transform="matrix(0.995521 0.0945422 -0.0882921 0.996095 202.169 291.852)" fill="white"/>
<path d="M222.466 360.047L223.081 360.378L223.381 359.815L222.844 359.464L222.466 360.047ZM216.186 367.7L215.711 367.186L214.305 368.488L216.223 368.397L216.186 367.7ZM229.917 363.76L230.151 363.104L229.869 363.002L229.602 363.136L229.917 363.76ZM273.776 341.947C272.499 356.355 257.319 366.903 239.609 365.221L239.486 366.61C257.708 368.341 273.799 357.486 275.164 342.079L273.776 341.947ZM244.271 312.627C261.981 314.309 275.053 327.54 273.776 341.947L275.164 342.079C276.53 326.672 262.616 312.968 244.394 311.237L244.271 312.627ZM210.104 335.901C211.381 321.493 226.561 310.945 244.271 312.627L244.394 311.237C226.172 309.507 210.081 320.362 208.715 335.769L210.104 335.901ZM222.844 359.464C214.373 353.922 209.283 345.167 210.104 335.901L208.715 335.769C207.839 345.658 213.281 354.87 222.087 360.631L222.844 359.464ZM216.661 368.213C220.156 364.978 222.059 362.3 223.081 360.378L221.85 359.717C220.912 361.48 219.112 364.038 215.711 367.186L216.661 368.213ZM229.602 363.136C225.973 364.952 220.282 366.807 216.149 367.003L216.223 368.397C220.61 368.189 226.494 366.256 230.231 364.385L229.602 363.136ZM239.609 365.221C236.275 364.905 233.099 364.176 230.151 363.104L229.682 364.416C232.743 365.528 236.034 366.283 239.486 366.61L239.609 365.221Z" fill="#4E9FFF"/>
<rect x="0.632671" y="0.760574" width="87.8949" height="90.9746" rx="18.4304" transform="matrix(0.995521 0.0945422 -0.0882921 0.996095 202.169 291.852)" stroke="#4E9FFF" stroke-width="1.39473"/>
<rect x="0.632671" y="0.760574" width="87.8949" height="90.9746" rx="18.4304" transform="matrix(0.995521 0.0945422 -0.0882921 0.996095 325.835 -0.0568439)" fill="white"/>
<path d="M393.187 23.9097L393.194 23.9179L393.202 23.9259C398.223 29.3375 400.441 40.7186 396.722 58.4692L396.722 58.4693C394.953 66.9202 390.947 71.1897 387.164 73.4335C384.046 75.2823 381.082 75.7737 379.398 76.0529C379.011 76.1171 378.691 76.17 378.453 76.2257L378.453 76.2259C377.536 76.4413 368.88 77.8377 357.945 75.8309L357.586 75.765L357.329 76.0225C355.971 77.3828 354.178 79.1531 352.892 80.3474C352.495 80.7161 352.114 81.0888 351.759 81.4371C351.581 81.6112 351.41 81.7792 351.246 81.9375C350.74 82.4249 350.291 82.8338 349.859 83.1436C349.43 83.4526 349.052 83.6379 348.696 83.7104C348.354 83.7799 347.993 83.7541 347.571 83.5731L347.57 83.5729C347.008 83.3325 346.711 82.728 346.587 81.9708C346.528 81.6122 346.518 81.2683 346.523 81.0111C346.526 80.8837 346.532 80.7804 346.538 80.7108C346.54 80.6761 346.543 80.65 346.545 80.6337L346.546 80.6167L346.547 80.6155L346.547 80.6151L346.547 80.6147L346.547 80.6142L346.547 80.6141L346.548 80.6037L346.549 80.5918L347.2 73.3657L347.263 72.6701L346.652 72.6121C339.058 69.5674 335.688 63.8817 334.324 57.768C332.945 51.5876 333.627 45.0114 334.133 40.348C335.137 31.1036 337.519 23.9782 342.726 19.4865C347.381 15.8249 354.151 14.6482 359.864 14.4172C362.707 14.3023 365.253 14.4226 367.089 14.5717C368.006 14.6463 368.744 14.7279 369.252 14.7907C369.506 14.822 369.702 14.8487 369.833 14.8674C369.899 14.8767 369.949 14.884 369.982 14.889L370.018 14.8945L370.027 14.8958L370.029 14.8961L370.029 14.8962L370.029 14.8962L370.049 14.8993L370.069 14.9013C385.404 16.4286 391.735 22.2435 393.187 23.9097Z" stroke="#4E9FFF" stroke-width="1.39473"/>
<path d="M373.955 43.705C374.099 40.1286 372.518 38.0928 369.21 37.5977" stroke="#4E9FFF" stroke-width="1.39981" stroke-linecap="round" stroke-linejoin="round"/>
<path d="M378.324 45.6941C378.687 42.3838 377.984 39.5225 376.213 37.11C374.435 34.6888 371.807 33.1991 368.32 32.5996" stroke="#4E9FFF" stroke-width="1.39981" stroke-linecap="round" stroke-linejoin="round"/>
<path d="M382.756 47.997C383.223 42.2373 381.964 37.5464 378.976 33.9245C375.989 30.3025 372.057 28.2422 367.181 27.7437" stroke="#4E9FFF" stroke-width="1.39981" stroke-linecap="round" stroke-linejoin="round"/>
<path d="M357.435 42.4699C356.747 42.5779 356.747 42.5782 356.747 42.5786L356.747 42.5795L356.748 42.582L356.749 42.5895L356.753 42.615C356.757 42.6365 356.763 42.6671 356.77 42.7063C356.785 42.7845 356.808 42.8969 356.839 43.0396C356.903 43.3249 357.003 43.7316 357.151 44.2279C357.446 45.2195 357.933 46.5749 358.706 48.0364C360.252 50.9576 362.959 54.3413 367.572 56.0382L367.628 56.0589L367.687 56.0697L367.809 55.3834C367.687 56.0697 367.688 56.0697 367.688 56.0698L367.688 56.0699L367.689 56.0701L367.692 56.0706L367.699 56.0717L367.718 56.0748C367.725 56.076 367.733 56.0773 367.743 56.0787C367.753 56.0801 367.764 56.0817 367.776 56.0833C367.823 56.0896 367.888 56.0968 367.967 56.1024C368.124 56.1133 368.342 56.1179 368.59 56.0919C369.075 56.041 369.752 55.8641 370.279 55.3055L370.279 55.3055L370.284 55.3003L371.728 53.7379L371.728 53.7379L371.734 53.731C372.196 53.2172 373.353 52.8697 374.464 53.6538C375.49 54.3958 376.479 55.1904 377.429 56.0347C377.871 56.4408 378.548 57.1167 379.125 57.7014C379.413 57.9927 379.672 58.2582 379.861 58.4511L380.085 58.6808L380.148 58.7458L380.17 58.7677C380.171 58.7682 380.171 58.7688 380.172 58.7695C380.503 59.1215 380.672 59.5107 380.701 59.9123C380.731 60.3219 380.619 60.7969 380.301 61.3099L380.214 61.449C379.451 62.5387 378.533 63.502 377.492 64.3064L377.485 64.3113C377.484 64.3121 377.483 64.3128 377.482 64.3136C377.474 64.3192 377.466 64.3248 377.459 64.3302L377.454 64.3334C376.528 64.9958 375.707 65.2937 374.982 65.3136L374.962 65.3141L374.942 65.3158C374.861 65.3227 374.78 65.3202 374.7 65.3085L374.679 65.3055L374.658 65.3037C374.417 65.2832 374.178 65.2318 373.949 65.1508L373.923 65.1026L373.685 65.008C372.419 64.5053 370.259 63.317 366.629 60.7705L366.626 60.7685C364.551 59.3279 362.596 57.7078 360.784 55.9255L360.784 55.9253C359.881 55.0375 359.028 54.0966 358.228 53.1073C358.228 53.1071 358.228 53.107 358.228 53.1069L358.142 53.0001L358.055 52.8919L357.968 52.7837L357.968 52.7837L357.961 52.7749C357.946 52.7567 357.934 52.7422 357.919 52.7228C357.909 52.7102 357.897 52.6955 357.882 52.6764C357.088 51.683 356.349 50.643 355.67 49.5617L355.669 49.5616C354.306 47.3923 353.121 45.1072 352.13 42.7308L352.13 42.7308L352.128 42.7278C350.37 38.5681 349.632 36.1516 349.384 34.7633L349.339 34.5162L349.298 34.4808C349.26 34.2229 349.254 33.9605 349.28 33.7001L349.282 33.6783L349.283 33.6564C349.286 33.5687 349.299 33.4817 349.321 33.3972L349.325 33.381L349.329 33.3645C349.488 32.6116 349.931 31.8204 350.726 30.994L350.727 30.9924C350.734 30.986 350.741 30.9791 350.748 30.9716C350.75 30.9694 350.752 30.9671 350.754 30.9648C351.712 30.0469 352.799 29.2862 353.976 28.7085L354.109 28.652C354.648 28.4237 355.105 28.4002 355.471 28.5001C355.834 28.599 356.171 28.8359 356.448 29.2445L356.451 29.2489M357.435 42.4699C356.738 42.4629 356.738 42.4627 356.738 42.4625L356.738 42.4619L356.738 42.4608L356.738 42.4582L356.738 42.4516L356.738 42.4327C356.739 42.4176 356.74 42.3977 356.741 42.3735C356.743 42.3251 356.748 42.259 356.757 42.1791C356.774 42.0205 356.808 41.8018 356.877 41.5581C357.01 41.0843 357.295 40.4333 357.925 39.9991L357.929 39.9961L357.929 39.9961L359.676 38.811L359.685 38.8051L359.685 38.8052C360.256 38.4306 360.819 37.2843 360.262 35.9787C359.743 34.7969 359.168 33.6429 358.538 32.5208C358.234 31.9972 357.716 31.1846 357.266 30.4909C357.042 30.1455 356.837 29.8333 356.688 29.6071C356.614 29.494 356.553 29.4026 356.511 29.3393L356.463 29.2668L356.451 29.2496L356.451 29.2489M357.435 42.4699L356.747 42.5779L356.738 42.5208L356.738 42.4629L357.435 42.4699ZM356.451 29.2489C356.45 29.2472 356.449 29.2464 356.449 29.2463M356.451 29.2489L356.45 29.247L356.449 29.2463M356.449 29.2463C356.449 29.2463 356.449 29.2463 356.449 29.2463L356.449 29.2463ZM380.233 61.4554L380.233 61.4556L380.233 61.4554Z" stroke="#4E9FFF" stroke-width="1.39473"/>
<rect x="0.632671" y="0.760574" width="87.8949" height="90.9746" rx="18.4304" transform="matrix(0.995521 0.0945422 -0.0882921 0.996095 325.835 -0.0568439)" stroke="#4E9FFF" stroke-width="1.39473"/>
<rect x="0.632671" y="0.760574" width="87.8949" height="90.9746" rx="18.4304" transform="matrix(0.995521 0.0945422 -0.0882921 0.996095 114.097 182.271)" fill="white"/>
<path d="M122.721 229.426L122.731 229.423L122.742 229.42C141.215 223.375 153.522 219.404 159.668 217.507C168.454 214.794 173.738 213.22 177.11 212.347C180.493 211.47 181.881 211.319 182.909 211.399C183.109 211.414 183.459 211.472 183.829 211.598C184.203 211.726 184.548 211.907 184.789 212.143C185.18 212.528 185.27 213.013 185.303 213.452C185.336 213.896 185.333 214.923 185.187 215.684C183.364 225.186 177.193 248.132 174.154 258.72C172.885 263.137 171.204 264.09 170.038 264.086C168.451 264.082 167.087 263.436 165.687 262.424C164.985 261.916 164.288 261.327 163.553 260.693C163.432 260.588 163.309 260.482 163.186 260.375C162.568 259.84 161.922 259.28 161.243 258.737C158.737 256.731 156.781 255.111 154.84 253.501L154.583 253.289C152.728 251.749 150.864 250.204 148.531 248.327C147.155 247.22 146.458 246.344 146.172 245.641C145.906 244.988 145.978 244.445 146.287 243.891C146.619 243.293 147.226 242.689 148.045 241.999C148.403 241.698 148.788 241.392 149.194 241.068C149.247 241.027 149.299 240.985 149.352 240.942C149.814 240.574 150.298 240.186 150.778 239.774C151.002 239.581 152.099 238.74 153.659 237.543C155.422 236.192 157.774 234.388 160.125 232.555C162.328 230.837 164.52 229.103 166.188 227.717C167.022 227.025 167.732 226.414 168.25 225.933C168.508 225.693 168.728 225.478 168.893 225.296C168.976 225.205 169.052 225.115 169.115 225.028C169.171 224.952 169.249 224.836 169.295 224.699C169.349 224.537 169.395 224.265 169.38 223.975C169.365 223.685 169.282 223.271 168.972 222.937C168.663 222.605 168.273 222.492 167.955 222.46C167.647 222.428 167.346 222.466 167.156 222.491C167.02 222.508 166.87 222.57 166.786 222.604C166.671 222.652 166.526 222.717 166.354 222.798C166.009 222.961 165.533 223.197 164.928 223.505C163.718 224.122 161.974 225.037 159.7 226.248C155.151 228.671 148.467 232.286 139.648 237.094L139.648 237.094L139.643 237.096C137.121 238.498 134.987 239.036 133.21 238.829C132.205 238.711 130.706 238.276 129.046 237.688C127.4 237.106 125.646 236.391 124.149 235.742C123.684 235.541 123.238 235.353 122.814 235.173C121.505 234.621 120.398 234.154 119.572 233.652C119.033 233.325 118.685 233.022 118.492 232.734C118.318 232.473 118.258 232.207 118.334 231.869C118.395 231.592 118.669 231.201 119.424 230.744C120.162 230.298 121.251 229.855 122.721 229.426Z" fill="white" stroke="#4E9FFF" stroke-width="1.31812"/>
<rect x="0.632671" y="0.760574" width="87.8949" height="90.9746" rx="18.4304" transform="matrix(0.995521 0.0945422 -0.0882921 0.996095 114.097 182.271)" stroke="#4E9FFF" stroke-width="1.39473"/>
<rect x="0.632671" y="0.760574" width="87.8949" height="90.9746" rx="14.1798" transform="matrix(0.995521 0.0945422 -0.0882921 0.996095 211.067 191.479)" fill="white"/>
<path d="M246.75 231.916L244.661 225.376C244.487 224.829 244.002 224.439 243.432 224.384C241.815 224.231 240.208 224.726 238.964 225.761L238.354 226.268C237.557 226.931 236.964 227.807 236.643 228.795L236.448 229.398C236.01 230.746 235.946 232.19 236.262 233.577L236.646 235.256C237.097 237.23 237.893 239.111 238.996 240.811L240.574 243.242C242.081 245.564 243.927 247.647 246.05 249.423L247.675 250.782C249.288 252.13 251.074 253.255 252.985 254.125L254.911 255.002C256.177 255.578 257.53 255.94 258.912 256.071L259.114 256.09C260.341 256.207 261.57 255.935 262.63 255.315L262.734 255.254C264.423 254.265 265.709 252.712 266.367 250.866L266.663 250.034C266.868 249.46 266.628 248.82 266.095 248.519L260.472 245.345C259.592 244.849 258.496 244.975 257.76 245.659L255.303 247.938C254.947 248.268 254.413 248.315 254.002 248.053L252.539 247.122C249.604 245.252 247.111 242.763 245.234 239.831L243.826 237.631C243.6 237.278 243.648 236.817 243.941 236.522L246.192 234.253C246.799 233.641 247.014 232.741 246.75 231.916Z" stroke="#4E9FFF" stroke-width="1.39473"/>
<mask id="path-19-inside-1_1719_7953" fill="white">
<path fill-rule="evenodd" clip-rule="evenodd" d="M225.387 237.554C224.878 243.289 226.241 248.77 228.97 253.389L227.024 258.005L225.309 262.317L230.429 261.539L230.444 261.552L235.339 260.714C239.235 263.819 244.042 265.866 249.357 266.371C263.884 267.751 276.705 257.086 277.994 242.55C279.282 228.015 268.55 215.113 254.023 213.734C239.496 212.354 226.675 223.019 225.387 237.554ZM234.08 266.41C238.36 269.297 243.397 271.185 248.884 271.706C266.356 273.365 281.776 260.539 283.325 243.057C284.875 225.575 271.968 210.058 254.496 208.399C237.024 206.74 221.604 219.566 220.055 237.048C219.534 242.925 220.647 248.58 223.018 253.561L219.164 263.25L216.867 269.023L223.012 268.09L234.08 266.41Z"/>
</mask>
<path d="M228.97 253.389L230.255 253.938L230.528 253.291L230.169 252.684L228.97 253.389ZM227.024 258.005L225.739 257.456L225.734 257.469L225.728 257.482L227.024 258.005ZM225.309 262.317L224.013 261.794L223.111 264.063L225.526 263.697L225.309 262.317ZM230.429 261.539L231.297 260.453L230.817 260.068L230.212 260.16L230.429 261.539ZM230.444 261.552L229.576 262.638L230.068 263.033L230.687 262.927L230.444 261.552ZM235.339 260.714L236.203 259.624L235.712 259.233L235.096 259.338L235.339 260.714ZM234.08 266.41L234.853 265.254L234.4 264.949L233.862 265.031L234.08 266.41ZM223.018 253.561L224.313 254.084L224.538 253.519L224.275 252.967L223.018 253.561ZM219.164 263.25L217.869 262.726L217.869 262.726L219.164 263.25ZM216.867 269.023L215.572 268.5L214.669 270.77L217.085 270.403L216.867 269.023ZM223.012 268.09L223.23 269.47L223.012 268.09ZM230.169 252.684C227.584 248.309 226.294 243.12 226.775 237.686L223.998 237.423C223.463 243.459 224.898 249.231 227.771 254.094L230.169 252.684ZM228.308 258.555L230.255 253.938L227.685 252.84L225.739 257.456L228.308 258.555ZM226.604 262.84L228.319 258.528L225.728 257.482L224.013 261.794L226.604 262.84ZM230.212 260.16L225.091 260.937L225.526 263.697L230.646 262.919L230.212 260.16ZM231.312 260.465L231.297 260.453L229.561 262.626L229.576 262.638L231.312 260.465ZM235.096 259.338L230.201 260.176L230.687 262.927L235.582 262.09L235.096 259.338ZM249.48 264.982C244.444 264.504 239.893 262.565 236.203 259.624L234.475 261.804C238.578 265.074 243.641 267.229 249.234 267.76L249.48 264.982ZM276.605 242.419C275.385 256.187 263.241 266.289 249.48 264.982L249.234 267.76C264.528 269.213 278.026 257.985 279.382 242.682L276.605 242.419ZM253.9 215.123C267.66 216.43 277.826 228.65 276.605 242.419L279.382 242.682C280.739 227.38 269.44 213.797 254.146 212.344L253.9 215.123ZM226.775 237.686C227.996 223.918 240.14 213.816 253.9 215.123L254.146 212.344C238.852 210.892 225.355 222.12 223.998 237.423L226.775 237.686ZM233.306 267.566C237.776 270.58 243.036 272.551 248.761 273.095L249.008 270.317C243.759 269.818 238.944 268.013 234.853 265.254L233.306 267.566ZM248.761 273.095C267 274.827 283.096 261.438 284.714 243.189L281.937 242.925C280.455 259.639 265.712 271.903 249.008 270.317L248.761 273.095ZM284.714 243.189C286.332 224.94 272.858 208.742 254.619 207.01L254.373 209.788C271.078 211.375 283.419 226.21 281.937 242.925L284.714 243.189ZM254.619 207.01C236.381 205.278 220.284 218.667 218.666 236.916L221.443 237.18C222.925 220.465 237.668 208.202 254.373 209.788L254.619 207.01ZM218.666 236.916C218.123 243.049 219.284 248.954 221.76 254.155L224.275 252.967C222.009 248.206 220.945 242.801 221.443 237.18L218.666 236.916ZM221.722 253.038L217.869 262.726L220.459 263.773L224.313 254.084L221.722 253.038ZM217.869 262.726L215.572 268.5L218.163 269.547L220.459 263.773L217.869 262.726ZM217.085 270.403L223.23 269.47L222.795 266.711L216.65 267.644L217.085 270.403ZM223.23 269.47L234.297 267.79L233.862 265.031L222.795 266.711L223.23 269.47Z" fill="#4E9FFF" mask="url(#path-19-inside-1_1719_7953)"/>
<rect x="0.632671" y="0.760574" width="87.8949" height="90.9746" rx="14.1798" transform="matrix(0.995521 0.0945422 -0.0882921 0.996095 211.067 191.479)" stroke="#4E9FFF" stroke-width="1.39473"/>
<rect x="0.632671" y="0.760574" width="87.8949" height="90.9746" rx="14.1798" transform="matrix(0.995521 0.0945422 -0.0882921 0.996095 299.143 301.062)" fill="white"/>
<path d="M334.82 341.499L332.732 334.959C332.557 334.412 332.072 334.022 331.502 333.967C329.886 333.814 328.279 334.309 327.034 335.344L326.424 335.851C325.627 336.514 325.034 337.39 324.714 338.378L324.518 338.981C324.08 340.329 324.016 341.773 324.333 343.16L324.716 344.839C325.167 346.813 325.963 348.694 327.067 350.394L328.644 352.825C330.151 355.147 331.997 357.23 334.121 359.006L335.746 360.365C337.358 361.713 339.144 362.838 341.055 363.708L342.981 364.585C344.248 365.161 345.6 365.523 346.982 365.654L347.184 365.673C348.411 365.79 349.641 365.518 350.701 364.898L350.804 364.837C352.493 363.848 353.779 362.295 354.437 360.449L354.734 359.617C354.938 359.043 354.698 358.403 354.165 358.102L348.542 354.928C347.662 354.432 346.567 354.558 345.83 355.242L343.373 357.521C343.017 357.851 342.483 357.898 342.072 357.636L340.61 356.705C337.675 354.835 335.181 352.346 333.304 349.414L331.896 347.215C331.67 346.862 331.718 346.4 332.012 346.105L334.262 343.836C334.869 343.224 335.084 342.324 334.82 341.499Z" stroke="#4E9FFF" stroke-width="1.39473"/>
<mask id="path-23-inside-2_1719_7953" fill="white">
<path fill-rule="evenodd" clip-rule="evenodd" d="M313.461 347.137C312.953 352.872 314.315 358.353 317.044 362.972L315.088 367.611L313.382 371.9L318.502 371.123L318.517 371.135L323.413 370.297C327.31 373.402 332.117 375.449 337.432 375.954C351.959 377.333 364.779 366.668 366.068 352.133C367.356 337.598 356.624 324.696 342.097 323.316C327.57 321.937 314.749 332.602 313.461 347.137ZM322.155 375.993C326.435 378.88 331.472 380.767 336.959 381.289C354.43 382.948 369.85 370.121 371.4 352.639C372.949 335.158 360.042 319.641 342.57 317.982C325.098 316.322 309.679 329.149 308.129 346.631C307.608 352.507 308.721 358.162 311.092 363.143L307.237 372.833L304.941 378.607L311.086 377.674L322.155 375.993Z"/>
</mask>
<path d="M317.044 362.972L318.329 363.521L318.602 362.874L318.243 362.267L317.044 362.972ZM315.088 367.611L313.804 367.062L313.798 367.075L313.793 367.088L315.088 367.611ZM313.382 371.9L312.087 371.377L311.184 373.647L313.599 373.28L313.382 371.9ZM318.502 371.123L319.37 370.036L318.891 369.651L318.285 369.743L318.502 371.123ZM318.517 371.135L317.649 372.221L318.141 372.616L318.76 372.51L318.517 371.135ZM323.413 370.297L324.278 369.207L323.786 368.816L323.17 368.921L323.413 370.297ZM322.155 375.993L322.928 374.838L322.475 374.532L321.937 374.614L322.155 375.993ZM311.092 363.143L312.387 363.666L312.612 363.101L312.349 362.549L311.092 363.143ZM307.237 372.833L305.942 372.31L305.942 372.31L307.237 372.833ZM304.941 378.607L303.645 378.084L302.743 380.353L305.158 379.986L304.941 378.607ZM311.086 377.674L311.303 379.054L311.303 379.054L311.086 377.674ZM318.243 362.267C315.658 357.892 314.368 352.703 314.849 347.269L312.072 347.005C311.537 353.041 312.972 358.813 315.846 363.677L318.243 362.267ZM316.373 368.16L318.329 363.521L315.76 362.422L313.804 367.062L316.373 368.16ZM314.678 372.423L316.384 368.134L313.793 367.088L312.087 371.377L314.678 372.423ZM318.285 369.743L313.165 370.52L313.599 373.28L318.72 372.503L318.285 369.743ZM319.385 370.048L319.37 370.036L317.635 372.21L317.649 372.221L319.385 370.048ZM323.17 368.921L318.274 369.759L318.76 372.51L323.657 371.672L323.17 368.921ZM337.555 374.564C332.518 374.086 327.967 372.148 324.278 369.207L322.549 371.386C326.652 374.656 331.715 376.812 337.308 377.343L337.555 374.564ZM364.679 352.001C363.459 365.769 351.315 375.871 337.555 374.564L337.308 377.343C352.602 378.795 366.1 367.568 367.456 352.265L364.679 352.001ZM341.974 324.706C355.734 326.012 365.9 338.233 364.679 352.001L367.456 352.265C368.813 336.962 357.514 323.379 342.22 321.927L341.974 324.706ZM314.849 347.269C316.07 333.501 328.214 323.399 341.974 324.706L342.22 321.927C326.926 320.475 313.429 331.703 312.072 347.005L314.849 347.269ZM321.381 377.149C325.85 380.163 331.11 382.134 336.836 382.678L337.082 379.899C331.833 379.401 327.019 377.596 322.928 374.838L321.381 377.149ZM336.836 382.678C355.074 384.41 371.171 371.02 372.788 352.771L370.011 352.507C368.53 369.222 353.787 381.486 337.082 379.899L336.836 382.678ZM372.788 352.771C374.406 334.522 360.932 318.324 342.693 316.592L342.447 319.371C359.152 320.957 371.493 335.793 370.011 352.507L372.788 352.771ZM342.693 316.592C324.455 314.86 308.358 328.25 306.741 346.499L309.518 346.763C310.999 330.048 325.742 317.784 342.447 319.371L342.693 316.592ZM306.741 346.499C306.197 352.631 307.359 358.536 309.834 363.737L312.349 362.549C310.083 357.788 309.019 352.384 309.518 346.763L306.741 346.499ZM309.796 362.62L305.942 372.31L308.533 373.356L312.387 363.666L309.796 362.62ZM305.942 372.31L303.645 378.084L306.236 379.13L308.533 373.356L305.942 372.31ZM305.158 379.986L311.303 379.054L310.868 376.294L304.724 377.227L305.158 379.986ZM311.303 379.054L322.372 377.373L321.937 374.614L310.868 376.294L311.303 379.054Z" fill="#4E9FFF" mask="url(#path-23-inside-2_1719_7953)"/>
<rect x="0.632671" y="0.760574" width="87.8949" height="90.9746" rx="14.1798" transform="matrix(0.995521 0.0945422 -0.0882921 0.996095 299.143 301.062)" stroke="#4E9FFF" stroke-width="1.39473"/>
<rect x="0.632671" y="0.760574" width="87.8949" height="90.9746" rx="14.1798" transform="matrix(0.995521 0.0945422 -0.0882921 0.996095 8.2255 273.434)" fill="white"/>
<path d="M43.9045 313.872L41.8155 307.332C41.6408 306.785 41.1564 306.394 40.5861 306.34C38.9697 306.186 37.3625 306.682 36.1181 307.717L35.5084 308.224C34.7113 308.887 34.1184 309.763 33.7976 310.751L33.6018 311.353C33.164 312.702 33.1 314.146 33.4168 315.532L33.8005 317.212C34.2514 319.186 35.0471 321.066 36.1506 322.767L37.7279 325.197C39.2349 327.519 41.0811 329.603 43.2045 331.379L44.8295 332.737C46.442 334.086 48.2282 335.21 50.1394 336.08L52.0652 336.957C53.3315 337.534 54.6838 337.895 56.0663 338.026L56.2684 338.046C57.4949 338.162 58.7247 337.891 59.7846 337.27L59.8883 337.209C61.5774 336.22 62.8628 334.668 63.5211 332.821L63.8175 331.99C64.0222 331.416 63.7819 330.775 63.2492 330.475L57.6259 327.301C56.7463 326.804 55.6506 326.931 54.9141 327.614L52.4569 329.894C52.1014 330.224 51.5672 330.271 51.1559 330.009L49.6936 329.077C46.7587 327.207 44.265 324.719 42.3881 321.786L40.9803 319.587C40.7543 319.234 40.8023 318.773 41.0956 318.477L43.3463 316.208C43.9529 315.597 44.1679 314.697 43.9045 313.872Z" stroke="#4E9FFF" stroke-width="1.39473"/>
<mask id="path-27-inside-3_1719_7953" fill="white">
<path fill-rule="evenodd" clip-rule="evenodd" d="M22.5391 319.509C22.0308 325.244 23.3936 330.725 26.1225 335.344L24.1451 340.033L22.4592 344.272L27.5795 343.495L27.5945 343.507L32.4912 342.669C36.3874 345.774 41.1946 347.821 46.5098 348.326C61.0368 349.705 73.8577 339.041 75.1461 324.505C76.4345 309.97 65.7025 297.068 51.1754 295.689C36.6484 294.309 23.8275 304.974 22.5391 319.509ZM31.232 348.365C35.5124 351.252 40.5495 353.14 46.0369 353.661C63.5086 355.32 78.9284 342.493 80.4779 325.012C82.0275 307.53 69.12 292.013 51.6483 290.354C34.1766 288.694 18.7569 301.521 17.2073 319.003C16.6865 324.879 17.799 330.533 20.1692 335.514L16.3145 345.205L14.018 350.978L20.1627 350.045L31.232 348.365Z"/>
</mask>
<path d="M26.1225 335.344L27.4072 335.893L27.68 335.246L27.3212 334.639L26.1225 335.344ZM24.1451 340.033L22.8604 339.484L22.8549 339.497L22.8497 339.51L24.1451 340.033ZM22.4592 344.272L21.1638 343.749L20.261 346.018L22.6765 345.652L22.4592 344.272ZM27.5795 343.495L28.4474 342.408L27.9677 342.023L27.3622 342.115L27.5795 343.495ZM27.5945 343.507L26.7265 344.593L27.2185 344.988L27.8376 344.882L27.5945 343.507ZM32.4912 342.669L33.3553 341.579L32.8642 341.187L32.2481 341.293L32.4912 342.669ZM31.232 348.365L32.0058 347.209L31.5528 346.904L31.0147 346.985L31.232 348.365ZM20.1692 335.514L21.4647 336.037L21.6895 335.471L21.4269 334.92L20.1692 335.514ZM16.3145 345.205L17.61 345.728L16.3145 345.205ZM14.018 350.978L12.7225 350.455L11.8197 352.725L14.2353 352.358L14.018 350.978ZM20.1627 350.045L20.38 351.425L20.1627 350.045ZM27.3212 334.639C24.7366 330.264 23.4459 325.075 23.9276 319.641L21.1506 319.377C20.6156 325.413 22.0507 331.185 24.9239 336.049L27.3212 334.639ZM25.4298 340.583L27.4072 335.893L24.8378 334.794L22.8604 339.484L25.4298 340.583ZM23.7547 344.795L25.4406 340.557L22.8497 339.51L21.1638 343.749L23.7547 344.795ZM27.3622 342.115L22.242 342.892L22.6765 345.652L27.7967 344.874L27.3622 342.115ZM28.4625 342.42L28.4474 342.408L26.7115 344.581L26.7265 344.593L28.4625 342.42ZM32.2481 341.293L27.3514 342.131L27.8376 344.882L32.7343 344.044L32.2481 341.293ZM46.6329 346.937C41.5963 346.458 37.045 344.52 33.3553 341.579L31.6271 343.758C35.7299 347.028 40.7929 349.184 46.3866 349.715L46.6329 346.937ZM73.7576 324.373C72.5372 338.141 60.3931 348.243 46.6329 346.937L46.3866 349.715C61.6805 351.168 75.1782 339.94 76.5346 324.637L73.7576 324.373ZM51.0523 297.078C64.8125 298.385 74.978 310.605 73.7576 324.373L76.5346 324.637C77.891 309.334 66.5925 295.752 51.2986 294.299L51.0523 297.078ZM23.9276 319.641C25.148 305.873 37.2921 295.771 51.0523 297.078L51.2986 294.299C36.0047 292.847 22.507 304.075 21.1506 319.377L23.9276 319.641ZM30.4582 349.521C34.928 352.535 40.188 354.506 45.9137 355.05L46.16 352.271C40.9111 351.773 36.0969 349.968 32.0058 347.209L30.4582 349.521ZM45.9137 355.05C64.1523 356.782 80.2488 343.392 81.8664 325.143L79.0894 324.88C77.6079 341.594 62.8649 353.858 46.16 352.271L45.9137 355.05ZM81.8664 325.143C83.484 306.894 70.01 290.696 51.7715 288.964L51.5252 291.743C68.23 293.329 80.571 308.165 79.0894 324.88L81.8664 325.143ZM51.7715 288.964C33.5329 287.232 17.4364 300.622 15.8188 318.871L18.5958 319.135C20.0773 302.42 34.8203 290.157 51.5252 291.743L51.7715 288.964ZM15.8188 318.871C15.2753 325.003 16.4366 330.907 18.9115 336.107L21.4269 334.92C19.1614 330.159 18.0976 324.755 18.5958 319.135L15.8188 318.871ZM18.8737 334.99L15.019 344.681L17.61 345.728L21.4647 336.037L18.8737 334.99ZM15.019 344.681L12.7225 350.455L15.3134 351.502L17.61 345.728L15.019 344.681ZM14.2353 352.358L20.38 351.425L19.9454 348.666L13.8007 349.599L14.2353 352.358ZM20.38 351.425L31.4493 349.745L31.0147 346.985L19.9454 348.666L20.38 351.425Z" fill="#4E9FFF" mask="url(#path-27-inside-3_1719_7953)"/>
<rect x="0.632671" y="0.760574" width="87.8949" height="90.9746" rx="14.1798" transform="matrix(0.995521 0.0945422 -0.0882921 0.996095 8.2255 273.434)" stroke="#4E9FFF" stroke-width="1.39473"/>
<rect x="0.632671" y="0.760574" width="87.8949" height="90.9746" rx="18.4304" transform="matrix(0.995521 0.0945422 -0.0882921 0.996095 308.044 200.688)" fill="white"/>
<path d="M375.396 224.654L375.403 224.662L375.411 224.67C380.432 230.082 382.65 241.463 378.931 259.213L378.931 259.213C377.162 267.664 373.156 271.934 369.373 274.178C366.255 276.026 363.291 276.518 361.607 276.797C361.22 276.861 360.9 276.914 360.662 276.97L360.662 276.97C359.745 277.185 351.089 278.582 340.154 276.575L339.795 276.509L339.538 276.767C338.18 278.127 336.387 279.897 335.101 281.092C334.704 281.46 334.323 281.833 333.968 282.181C333.79 282.355 333.619 282.523 333.455 282.682C332.949 283.169 332.5 283.578 332.068 283.888C331.639 284.197 331.261 284.382 330.905 284.455C330.563 284.524 330.202 284.498 329.78 284.317L329.779 284.317C329.217 284.077 328.92 283.472 328.796 282.715C328.737 282.356 328.727 282.012 328.732 281.755C328.735 281.628 328.741 281.525 328.747 281.455C328.749 281.42 328.752 281.394 328.754 281.378L328.755 281.361L328.756 281.36L328.756 281.359L328.756 281.359L328.756 281.358L328.756 281.358L328.757 281.348L328.758 281.336L329.409 274.11L329.472 273.414L328.861 273.356C321.267 270.312 317.897 264.626 316.533 258.512C315.154 252.332 315.836 245.756 316.342 241.092C317.346 231.848 319.728 224.722 324.935 220.231C329.59 216.569 336.36 215.392 342.073 215.161C344.916 215.046 347.462 215.167 349.297 215.316C350.215 215.39 350.953 215.472 351.461 215.535C351.715 215.566 351.911 215.593 352.042 215.612C352.108 215.621 352.158 215.628 352.191 215.633L352.227 215.639L352.236 215.64L352.237 215.64L352.238 215.64L352.238 215.64L352.258 215.643L352.278 215.645C367.613 217.173 373.944 222.988 375.396 224.654Z" stroke="#4E9FFF" stroke-width="1.39473"/>
<path d="M356.164 244.45C356.308 240.873 354.727 238.837 351.419 238.342" stroke="#4E9FFF" stroke-width="1.39981" stroke-linecap="round" stroke-linejoin="round"/>
<path d="M360.531 246.439C360.894 243.129 360.191 240.268 358.42 237.855C356.642 235.434 354.014 233.944 350.527 233.345" stroke="#4E9FFF" stroke-width="1.39981" stroke-linecap="round" stroke-linejoin="round"/>
<path d="M364.966 248.742C365.434 242.982 364.175 238.292 361.187 234.67C358.2 231.048 354.268 228.987 349.392 228.489" stroke="#4E9FFF" stroke-width="1.39981" stroke-linecap="round" stroke-linejoin="round"/>
<path d="M339.642 243.215C338.954 243.323 338.954 243.323 338.954 243.323L338.954 243.324L338.955 243.327L338.956 243.334L338.96 243.36C338.964 243.381 338.97 243.412 338.977 243.451C338.992 243.529 339.015 243.642 339.046 243.784C339.11 244.07 339.21 244.476 339.358 244.973C339.653 245.964 340.141 247.32 340.914 248.781C342.459 251.702 345.166 255.086 349.779 256.783L349.835 256.804L349.894 256.814L350.016 256.128C349.894 256.814 349.895 256.814 349.895 256.814L349.895 256.815L349.896 256.815L349.899 256.815L349.906 256.816L349.925 256.819C349.932 256.821 349.94 256.822 349.95 256.823C349.96 256.825 349.971 256.826 349.983 256.828C350.03 256.834 350.095 256.841 350.174 256.847C350.331 256.858 350.549 256.862 350.797 256.836C351.282 256.786 351.959 256.609 352.486 256.05L352.486 256.05L352.491 256.045L353.935 254.482L353.935 254.483L353.941 254.476C354.403 253.962 355.561 253.614 356.671 254.398C357.697 255.14 358.686 255.935 359.636 256.779C360.078 257.185 360.755 257.861 361.332 258.446C361.62 258.737 361.879 259.003 362.068 259.196L362.292 259.425L362.355 259.49L362.377 259.512C362.378 259.513 362.378 259.513 362.379 259.514C362.71 259.866 362.879 260.255 362.908 260.657C362.938 261.067 362.826 261.541 362.508 262.055L362.421 262.194C361.658 263.283 360.74 264.247 359.699 265.051L359.692 265.056C359.691 265.057 359.69 265.057 359.689 265.058C359.681 265.064 359.673 265.069 359.666 265.075L359.661 265.078C358.735 265.74 357.914 266.038 357.189 266.058L357.169 266.059L357.149 266.06C357.068 266.067 356.987 266.065 356.907 266.053L356.886 266.05L356.865 266.048C356.624 266.028 356.385 265.976 356.156 265.895L356.13 265.847L355.892 265.753C354.626 265.25 352.466 264.062 348.836 261.515L348.833 261.513C346.758 260.073 344.803 258.452 342.991 256.67L342.991 256.67C342.088 255.782 341.235 254.841 340.435 253.852C340.435 253.852 340.435 253.852 340.435 253.851L340.349 253.745L340.262 253.637L340.175 253.528L340.175 253.528L340.168 253.519C340.153 253.501 340.141 253.487 340.126 253.467C340.116 253.455 340.104 253.44 340.089 253.421C339.295 252.428 338.556 251.388 337.877 250.306L337.876 250.306C336.513 248.137 335.328 245.852 334.337 243.475L334.337 243.475L334.335 243.472C332.577 239.313 331.839 236.896 331.591 235.508L331.546 235.261L331.505 235.225C331.467 234.967 331.461 234.705 331.487 234.445L331.489 234.423L331.49 234.401C331.493 234.313 331.506 234.226 331.528 234.142L331.532 234.126L331.536 234.109C331.695 233.356 332.138 232.565 332.933 231.739L332.934 231.737C332.941 231.731 332.948 231.724 332.955 231.716C332.957 231.714 332.959 231.712 332.961 231.709C333.919 230.791 335.006 230.031 336.183 229.453L336.316 229.397C336.855 229.168 337.312 229.145 337.678 229.245C338.041 229.344 338.378 229.581 338.655 229.989L338.658 229.993M339.642 243.215C338.945 243.208 338.945 243.207 338.945 243.207L338.945 243.207L338.945 243.205L338.945 243.203L338.945 243.196L338.945 243.177C338.946 243.162 338.947 243.142 338.948 243.118C338.95 243.07 338.955 243.004 338.964 242.924C338.981 242.765 339.015 242.546 339.084 242.303C339.217 241.829 339.502 241.178 340.132 240.744L340.136 240.741L340.136 240.741L341.883 239.556L341.892 239.55L341.892 239.55C342.463 239.175 343.026 238.029 342.469 236.723C341.95 235.542 341.375 234.388 340.745 233.265C340.441 232.742 339.923 231.929 339.473 231.236C339.249 230.89 339.044 230.578 338.895 230.352C338.821 230.239 338.76 230.147 338.718 230.084L338.67 230.011L338.658 229.994L338.658 229.993M339.642 243.215L338.954 243.323L338.945 243.265L338.945 243.208L339.642 243.215ZM338.658 229.993C338.657 229.992 338.656 229.991 338.656 229.991M338.658 229.993L338.657 229.992L338.656 229.991M338.656 229.991C338.656 229.991 338.656 229.991 338.656 229.991L338.656 229.991ZM362.44 262.2L362.44 262.2L362.44 262.2Z" stroke="#4E9FFF" stroke-width="1.39473"/>
<rect x="0.632671" y="0.760574" width="87.8949" height="90.9746" rx="18.4304" transform="matrix(0.995521 0.0945422 -0.0882921 0.996095 308.044 200.688)" stroke="#4E9FFF" stroke-width="1.39473"/>
</svg>
