<svg width="64" height="64" viewBox="0 0 64 64" fill="none" xmlns="http://www.w3.org/2000/svg">
<rect width="64" height="64" rx="13.7143" fill="url(#paint0_linear_1719_4604)"/>
<path d="M14.3712 43.8574V22.7224H11.0903V43.8574H14.3712ZM28.7313 43.8574L36.2743 22.7224H32.7737L27.003 40.1665H26.9151L21.159 22.7224H17.5999L25.1428 43.8574H28.7313ZM42.7984 25.476H47.4267C49.9606 25.476 51.5131 26.9113 51.5131 29.2694C51.5131 31.6861 50.0485 33.0775 47.5146 33.0775H42.7984V25.476ZM42.7984 35.7286H47.4267L51.7328 43.8574H55.5263L50.7808 35.2159C53.3586 34.3518 54.8819 32.0376 54.8819 29.1815C54.8819 25.2416 52.1722 22.7224 47.8222 22.7224H39.5176V43.8574H42.7984V35.7286Z" fill="white"/>
<defs>
<linearGradient id="paint0_linear_1719_4604" x1="0" y1="0" x2="64" y2="64" gradientUnits="userSpaceOnUse">
<stop stop-color="#70D6FE"/>
<stop offset="1" stop-color="#867DFD"/>
</linearGradient>
</defs>
</svg>
