<svg width="24" height="24" viewBox="0 0 24 24" fill="none" xmlns="http://www.w3.org/2000/svg">
<path fill-rule="evenodd" clip-rule="evenodd" d="M22 20.75C22 21.716 21.216 22.5 20.25 22.5L14.75 22.5C14.5511 22.5 14.3603 22.421 14.2197 22.2803C14.079 22.1397 14 21.9489 14 21.75C14 21.5511 14.079 21.3603 14.2197 21.2197C14.3603 21.079 14.5511 21 14.75 21L20.25 21C20.3163 21 20.3799 20.9737 20.4268 20.9268C20.4737 20.8799 20.5 20.8163 20.5 20.75L20.5 3.25C20.5 3.112 20.388 3 20.25 3L14.75 3C14.5511 3 14.3603 2.92098 14.2197 2.78033C14.079 2.63968 14 2.44891 14 2.25C14 2.05109 14.079 1.86032 14.2197 1.71967C14.3603 1.57902 14.5511 1.5 14.75 1.5L20.25 1.5C20.7141 1.5 21.1592 1.68438 21.4874 2.01256C21.8156 2.34075 22 2.78587 22 3.25L22 20.75ZM12.006 11.25L8.706 7.766C8.57457 7.62077 8.50516 7.42989 8.51262 7.23416C8.52009 7.03843 8.60383 6.85338 8.74594 6.71858C8.88805 6.58378 9.07726 6.50993 9.27311 6.51281C9.46896 6.51569 9.65591 6.59508 9.794 6.734L14.294 11.484C14.4261 11.6233 14.4997 11.808 14.4997 12C14.4997 12.192 14.4261 12.3767 14.294 12.516L9.794 17.266C9.65591 17.4049 9.46896 17.4843 9.27311 17.4872C9.07726 17.4901 8.88805 17.4162 8.74594 17.2814C8.60382 17.1466 8.52009 16.9616 8.51262 16.7658C8.50516 16.5701 8.57456 16.3792 8.706 16.234L12.006 12.75L3.75 12.75C3.55109 12.75 3.36032 12.671 3.21967 12.5303C3.07902 12.3897 3 12.1989 3 12C3 11.8011 3.07902 11.6103 3.21967 11.4697C3.36032 11.329 3.55109 11.25 3.75 11.25L12.006 11.25Z" fill="white"/>
</svg>
