<svg width="64" height="64" viewBox="0 0 64 64" fill="none" xmlns="http://www.w3.org/2000/svg">
<rect width="64" height="64" rx="13.7143" fill="url(#paint0_linear_1728_19241)"/>
<path fill-rule="evenodd" clip-rule="evenodd" d="M12.7498 30.2705C23.4872 25.5924 30.6471 22.5083 34.2296 21.0182C44.4584 16.7637 46.5838 16.0247 47.9692 16.0003C48.2739 15.9949 48.9551 16.0704 49.3964 16.4285C49.769 16.7308 49.8716 17.1393 49.9206 17.426C49.9697 17.7126 50.0308 18.3657 49.9822 18.8759C49.4279 24.7 47.0295 38.8335 45.8093 45.3565C45.293 48.1167 44.2763 49.0422 43.2921 49.1327C41.1532 49.3296 39.529 47.7192 37.4573 46.3612C34.2156 44.2362 32.3842 42.9134 29.2376 40.8398C25.6011 38.4434 27.9585 37.1263 30.0309 34.9737C30.5733 34.4104 39.9974 25.8384 40.1798 25.0608C40.2026 24.9635 40.2238 24.601 40.0085 24.4096C39.7931 24.2182 39.4752 24.2836 39.2459 24.3357C38.9207 24.4095 33.742 27.8324 23.7097 34.6045C22.2398 35.6139 20.9083 36.1057 19.7154 36.0799C18.4003 36.0515 15.8706 35.3363 13.99 34.725C11.6833 33.9752 9.85005 33.5788 10.0097 32.3054C10.0928 31.6422 11.0062 30.9639 12.7498 30.2705Z" fill="white"/>
<defs>
<linearGradient id="paint0_linear_1728_19241" x1="0" y1="0" x2="64" y2="64" gradientUnits="userSpaceOnUse">
<stop stop-color="#2AABEE"/>
<stop offset="1" stop-color="#25AFF7"/>
</linearGradient>
</defs>
</svg>
