<svg width="64" height="64" viewBox="0 0 64 64" fill="none" xmlns="http://www.w3.org/2000/svg">
<rect width="64" height="64" rx="13.7143" fill="#7360F2"/>
<path d="M49.9974 11.7263C48.7569 10.5817 43.744 6.94269 32.5782 6.89325C32.5782 6.89325 19.4109 6.09922 12.992 11.987C9.41885 15.5609 8.16189 20.7902 8.0293 27.2735C7.89672 33.7568 7.72518 45.9069 19.4371 49.2014H19.4483L19.4408 54.2285C19.4408 54.2285 19.3659 56.2637 20.706 56.6787C22.327 57.1821 23.2784 55.6353 24.826 53.9678C25.6754 53.0524 26.8485 51.7078 27.7324 50.6801C35.7423 51.3543 41.9028 49.8134 42.6024 49.5857C44.2197 49.0613 53.3712 47.889 54.8597 35.7397C56.396 23.2172 54.1166 15.2965 49.9974 11.7263Z" fill="white"/>
<path d="M47.3932 14.2556C46.3445 13.3028 41.8178 10.4585 32.3726 10.4173C32.3726 10.4173 21.1881 9.68247 15.7587 14.6002C12.7369 17.5838 11.7189 22.0206 11.6073 27.435C11.4957 32.8493 10.9174 43.1927 20.821 45.944C20.821 45.944 20.7821 53.6229 20.7776 54.2978C20.7776 54.7697 20.8525 55.0926 21.1221 55.1592C21.3161 55.2064 21.6068 55.1061 21.854 54.8596C23.4375 53.2693 28.5073 47.1531 28.5073 47.1531C35.3097 47.5973 40.7219 46.2542 41.3039 46.0639C42.6762 45.6227 50.0989 44.9852 51.3551 34.8382C52.6532 24.3787 50.8779 17.2392 47.3932 14.2556Z" fill="#7360F2"/>
<path d="M37.1743 26.9899C37.0514 24.5134 35.7935 23.2127 33.4004 23.0879" stroke="white" stroke-width="1.26295" stroke-linecap="round" stroke-linejoin="round"/>
<path d="M40.417 28.0762C40.467 25.769 39.7836 23.8414 38.3668 22.2933C36.9436 20.7397 34.9735 19.8842 32.4453 19.6992" stroke="white" stroke-width="1.26295" stroke-linecap="round" stroke-linejoin="round"/>
<path d="M43.7299 29.374C43.6995 25.3704 42.5032 22.2172 40.1411 19.9145C37.779 17.6119 34.8413 16.4483 31.3281 16.4238" stroke="white" stroke-width="1.26295" stroke-linecap="round" stroke-linejoin="round"/>
<path d="M33.5252 35.4479C33.5252 35.4479 34.4129 35.5228 34.8908 34.934L35.8227 33.7617C36.2721 33.1804 37.3568 32.8096 38.419 33.4014C39.215 33.8553 39.9878 34.3489 40.7344 34.8801C41.4393 35.3984 42.8828 36.6029 42.8873 36.6029C43.5749 37.1835 43.7337 38.0359 43.2656 38.9348C43.2656 38.9401 43.2618 38.9491 43.2618 38.9536C42.7462 39.8475 42.0915 40.6536 41.3224 41.3416C41.3134 41.3461 41.3134 41.3506 41.3052 41.3551C40.637 41.9134 39.9806 42.2308 39.3359 42.3072C39.2409 42.3238 39.1445 42.3299 39.0482 42.3252C38.7639 42.3279 38.4811 42.2844 38.2107 42.1963L38.1898 42.1656C37.1965 41.8855 35.538 41.1843 32.7762 39.6607C31.1779 38.7894 29.6563 37.7843 28.2277 36.6561C27.5117 36.091 26.8286 35.4852 26.182 34.8419L26.1131 34.7729L26.0442 34.704L25.9752 34.6351C25.952 34.6126 25.9295 34.5894 25.9063 34.5662C25.2629 33.9195 24.6572 33.2365 24.0921 32.5205C22.9641 31.092 21.959 29.5707 21.0875 27.9728C19.5638 25.2102 18.8627 23.5532 18.5826 22.5584L18.5518 22.5374C18.464 22.2671 18.4208 21.9842 18.4237 21.7C18.4185 21.6037 18.4243 21.5072 18.441 21.4123C18.5214 20.7686 18.8392 20.1117 19.3946 19.4415C19.3991 19.4332 19.4035 19.4332 19.408 19.4243C20.0959 18.6552 20.9021 18.0007 21.7961 17.4856C21.8006 17.4856 21.8096 17.4811 21.8148 17.4811C22.7137 17.013 23.5662 17.1718 24.146 17.8557C24.1505 17.8602 25.3528 19.3037 25.8689 20.0085C26.4001 20.7559 26.8937 21.5294 27.3476 22.3262C27.9393 23.3876 27.5685 24.4746 26.9873 24.9225L25.8149 25.8544C25.2232 26.3323 25.3011 27.2199 25.3011 27.2199C25.3011 27.2199 27.0374 33.7916 33.5252 35.4479Z" fill="white"/>
</svg>
