<svg width="36" height="36" viewBox="0 0 36 36" fill="none" xmlns="http://www.w3.org/2000/svg">
<circle cx="18" cy="18" r="18" fill="#FFF6F2"/>
<path d="M23.0899 8.82001C22.1702 8.06359 21.0933 7.52204 19.9376 7.23485C18.7819 6.94767 17.5767 6.9221 16.4099 7.16001C14.8563 7.47383 13.4309 8.24208 12.3146 9.36729C11.1983 10.4925 10.4414 11.9239 10.1399 13.48C9.91979 14.6467 9.95979 15.8477 10.2571 16.9971C10.5544 18.1466 11.1017 19.2163 11.8599 20.13C12.5636 20.9241 12.967 21.9395 12.9999 23V26C12.9999 26.7957 13.316 27.5587 13.8786 28.1213C14.4412 28.6839 15.2043 29 15.9999 29H19.9999C20.7956 29 21.5587 28.6839 22.1213 28.1213C22.6839 27.5587 22.9999 26.7957 22.9999 26V23.19C23.0335 22.0192 23.4637 20.8944 24.2199 20C25.5451 18.3608 26.1697 16.2648 25.9581 14.1676C25.7465 12.0704 24.7158 10.1415 23.0899 8.80001V8.82001ZM20.9999 26C20.9999 26.2652 20.8946 26.5196 20.707 26.7071C20.5195 26.8947 20.2652 27 19.9999 27H15.9999C15.7347 27 15.4804 26.8947 15.2928 26.7071C15.1053 26.5196 14.9999 26.2652 14.9999 26V25H20.9999V26ZM22.6699 18.76C21.6644 19.9526 21.0778 21.442 20.9999 23H18.9999V20C18.9999 19.7348 18.8946 19.4804 18.707 19.2929C18.5195 19.1054 18.2652 19 17.9999 19C17.7347 19 17.4804 19.1054 17.2928 19.2929C17.1053 19.4804 16.9999 19.7348 16.9999 20V23H14.9999C14.9736 21.4681 14.4069 19.9948 13.3999 18.84C12.7356 18.044 12.2888 17.0894 12.1033 16.0694C11.9177 15.0493 11.9996 13.9985 12.341 13.0195C12.6825 12.0406 13.2718 11.1668 14.0515 10.4833C14.8312 9.79992 15.7747 9.33021 16.7899 9.12001C17.6625 8.94035 18.5641 8.95725 19.4293 9.16948C20.2945 9.3817 21.1016 9.78393 21.792 10.347C22.4824 10.91 23.0387 11.6197 23.4206 12.4245C23.8025 13.2294 24.0004 14.1092 23.9999 15C24.0073 16.3699 23.537 17.6995 22.6699 18.76Z" fill="#FB6B1A"/>
</svg>
