<svg width="497" height="180" viewBox="0 0 497 180" fill="none" xmlns="http://www.w3.org/2000/svg">
<rect x="0.552358" y="0.657753" width="66.6196" height="68.9592" rx="13.9253" transform="matrix(0.995951 0.0898927 -0.08364 0.996496 371.717 -26.3135)" fill="white"/>
<path d="M384.854 -1.8142L383.115 18.8985L381.639 18.7653L383.378 -1.9474L384.854 -1.8142ZM391.027 -1.25701L396.131 18.1372L396.283 18.1509L404.541 -0.0372109L406.108 0.104202L396.88 20.1409L395.222 19.9913L389.47 -1.39751L391.027 -1.25701ZM408.976 21.2327L410.715 0.519982L417.194 1.10479C418.562 1.22826 419.703 1.59276 420.616 2.1983C421.529 2.80383 422.2 3.58789 422.629 4.55048C423.057 5.51306 423.221 6.59443 423.12 7.79458C423.02 8.98799 422.679 10.017 422.097 10.8816C421.516 11.7395 420.725 12.3814 419.726 12.8075C418.726 13.2336 417.548 13.3855 416.194 13.2632L410.483 12.7477L410.598 11.3723L416.269 11.8841C417.34 11.9808 418.263 11.8705 419.036 11.553C419.81 11.2356 420.418 10.747 420.86 10.0872C421.31 9.42128 421.575 8.61298 421.655 7.66229C421.735 6.70487 421.609 5.85454 421.278 5.11131C420.954 4.36195 420.434 3.75798 419.719 3.2994C419.011 2.8347 418.118 2.55368 417.04 2.45637L412.077 2.00841L410.452 21.3659L408.976 21.2327ZM418.476 12.6438L422.784 22.479L421.076 22.3248L416.809 12.4933L418.476 12.6438Z" fill="#FF6F1D"/>
<rect x="0.552358" y="0.657753" width="66.6196" height="68.9592" rx="13.9253" transform="matrix(0.995951 0.0898927 -0.08364 0.996496 371.717 -26.3135)" stroke="#FF6E1D" stroke-width="1.2109"/>
<rect x="0.552358" y="0.657753" width="66.6196" height="68.9592" rx="13.9253" transform="matrix(0.995951 0.0898927 -0.08364 0.996496 285.217 119.597)" fill="white"/>
<path d="M298.355 144.096L296.617 164.809L295.141 164.675L296.88 143.963L298.355 144.096ZM304.529 144.653L309.633 164.047L309.785 164.061L318.043 145.873L319.61 146.014L310.381 166.051L308.724 165.901L302.972 144.513L304.529 144.653ZM322.478 167.143L324.217 146.43L330.696 147.015C332.064 147.138 333.205 147.503 334.118 148.108C335.031 148.714 335.702 149.498 336.13 150.461C336.559 151.423 336.723 152.505 336.622 153.705C336.522 154.898 336.181 155.927 335.599 156.792C335.018 157.65 334.227 158.292 333.227 158.718C332.227 159.144 331.05 159.296 329.696 159.173L323.985 158.658L324.1 157.282L329.771 157.794C330.842 157.891 331.765 157.781 332.538 157.463C333.312 157.146 333.92 156.657 334.362 155.997C334.812 155.331 335.077 154.523 335.156 153.572C335.237 152.615 335.111 151.765 334.78 151.021C334.456 150.272 333.936 149.668 333.221 149.21C332.513 148.745 331.62 148.464 330.542 148.367L325.579 147.919L323.954 167.276L322.478 167.143ZM331.978 158.554L336.286 168.389L334.577 168.235L330.31 158.403L331.978 158.554Z" fill="#FF6F1D"/>
<rect x="0.552358" y="0.657753" width="66.6196" height="68.9592" rx="13.9253" transform="matrix(0.995951 0.0898927 -0.08364 0.996496 285.217 119.597)" stroke="#FF6E1D" stroke-width="1.2109"/>
<rect x="0.483313" y="0.575534" width="66.771" height="69.1105" rx="14.001" transform="matrix(0.995951 0.0898927 -0.08364 0.996496 445.411 -19.6554)" fill="white"/>
<path d="M461.071 32.0747L461.54 32.3238L461.766 31.8948L461.357 31.6301L461.071 32.0747ZM456.328 37.9101L455.966 37.5216L454.902 38.5153L456.359 38.4395L456.328 37.9101ZM466.745 34.8687L466.92 34.3697L466.706 34.2929L466.503 34.3954L466.745 34.8687ZM499.986 18.1428C499.066 29.0921 487.572 37.159 474.113 35.9442L474.024 37C487.873 38.2499 500.058 29.9468 501.041 18.238L499.986 18.1428ZM477.468 -4.02629C490.927 -2.81146 500.905 7.19342 499.986 18.1428L501.041 18.238C502.024 6.52915 491.405 -3.83215 477.556 -5.08211L477.468 -4.02629ZM451.595 13.7751C452.514 2.82578 464.008 -5.24111 477.468 -4.02629L477.556 -5.08211C463.708 -6.33207 451.522 1.97102 450.54 13.6799L451.595 13.7751ZM461.357 31.6301C454.902 27.4498 451.004 20.817 451.595 13.7751L450.54 13.6799C449.909 21.1954 454.076 28.1739 460.786 32.5192L461.357 31.6301ZM456.691 38.2987C459.335 35.8286 460.771 33.7875 461.54 32.3238L460.602 31.8255C459.896 33.1688 458.538 35.1184 455.966 37.5216L456.691 38.2987ZM466.503 34.3954C463.753 35.7881 459.437 37.2174 456.297 37.3808L456.359 38.4395C459.691 38.266 464.154 36.7765 466.986 35.3419L466.503 34.3954ZM474.113 35.9442C471.579 35.7154 469.164 35.1731 466.92 34.3697L466.569 35.3676C468.898 36.2015 471.401 36.7632 474.024 37L474.113 35.9442Z" fill="#FF6F1D"/>
<rect x="0.483313" y="0.575534" width="66.771" height="69.1105" rx="14.001" transform="matrix(0.995951 0.0898927 -0.08364 0.996496 445.411 -19.6554)" stroke="#FF6E1D" stroke-width="1.05954"/>
<rect x="0.483313" y="0.575534" width="66.771" height="69.1105" rx="14.001" transform="matrix(0.995951 0.0898927 -0.08364 0.996496 358.902 126.254)" fill="white"/>
<path d="M374.563 177.986L375.032 178.235L375.258 177.806L374.849 177.541L374.563 177.986ZM369.82 183.821L369.458 183.433L368.394 184.426L369.851 184.351L369.82 183.821ZM380.237 180.78L380.412 180.281L380.198 180.204L379.996 180.307L380.237 180.78ZM413.478 164.054C412.559 175.003 401.064 183.07 387.605 181.855L387.516 182.911C401.365 184.161 413.55 175.858 414.533 164.149L413.478 164.054ZM390.96 141.885C404.419 143.1 414.397 153.105 413.478 164.054L414.533 164.149C415.516 152.44 404.897 142.079 391.048 140.829L390.96 141.885ZM365.087 159.686C366.006 148.737 377.5 140.67 390.96 141.885L391.048 140.829C377.2 139.579 365.015 147.882 364.032 159.591L365.087 159.686ZM374.849 177.541C368.394 173.361 364.496 166.728 365.087 159.686L364.032 159.591C363.401 167.107 367.568 174.085 374.278 178.43L374.849 177.541ZM370.183 184.21C372.827 181.74 374.263 179.699 375.032 178.235L374.095 177.737C373.388 179.08 372.03 181.03 369.458 183.433L370.183 184.21ZM379.996 180.307C377.246 181.699 372.929 183.128 369.79 183.292L369.851 184.351C373.183 184.177 377.646 182.688 380.478 181.253L379.996 180.307ZM387.605 181.855C385.071 181.627 382.656 181.084 380.412 180.281L380.061 181.279C382.39 182.113 384.893 182.674 387.516 182.911L387.605 181.855Z" fill="#FF6F1D"/>
<rect x="0.483313" y="0.575534" width="66.771" height="69.1105" rx="14.001" transform="matrix(0.995951 0.0898927 -0.08364 0.996496 358.902 126.254)" stroke="#FF6E1D" stroke-width="1.05954"/>
<rect x="0.483313" y="0.575534" width="66.771" height="69.1105" rx="14.001" transform="matrix(0.995951 0.0898927 -0.08364 0.996496 291.609 43.3219)" fill="white"/>
<path d="M331.978 101.597C331.218 101.779 324.574 102.876 316.181 101.376C315.154 102.415 313.792 103.772 312.812 104.691L331.978 101.597ZM331.978 101.597C332.134 101.56 332.355 101.523 332.629 101.476M331.978 101.597L332.629 101.476M332.629 101.476C335.421 101.004 343.74 99.5967 346.186 87.6374L332.629 101.476ZM342.859 61.287L342.864 61.2932L342.87 61.2993C346.704 65.3924 348.429 74.0303 345.667 87.5279L345.667 87.528C344.353 93.9541 341.325 97.2117 338.459 98.9296C336.097 100.345 333.847 100.729 332.569 100.947C332.275 100.997 332.033 101.039 331.852 101.082L331.851 101.082C331.156 101.249 324.585 102.34 316.271 100.854L315.998 100.806L315.804 101.002C314.777 102.04 313.421 103.392 312.449 104.303C312.148 104.585 311.861 104.869 311.592 105.135C311.457 105.268 311.328 105.396 311.204 105.517C310.821 105.889 310.481 106.201 310.155 106.438C309.829 106.675 309.543 106.817 309.273 106.873C309.014 106.927 308.739 106.909 308.418 106.773L308.417 106.773C307.99 106.592 307.762 106.134 307.665 105.559C307.619 105.287 307.61 105.026 307.613 104.83C307.614 104.733 307.619 104.655 307.623 104.602C307.625 104.576 307.627 104.556 307.628 104.543L307.629 104.53L307.629 104.53L307.629 104.529L307.629 104.529L307.629 104.529L307.629 104.528L307.63 104.521L307.631 104.512L308.1 99.0199L308.145 98.4912L307.681 98.4493C301.901 96.1633 299.321 91.8561 298.263 87.2165C297.194 82.5265 297.688 77.5284 298.056 73.984C298.786 66.9578 300.571 61.5365 304.51 58.1058C308.033 55.3077 313.172 54.3899 317.511 54.1941C319.67 54.0968 321.605 54.1791 323 54.2859C323.697 54.3392 324.258 54.3986 324.644 54.4445C324.837 54.4674 324.986 54.487 325.086 54.5007C325.136 54.5076 325.174 54.513 325.199 54.5166L325.227 54.5207L325.233 54.5217L325.234 54.5219L325.235 54.5219L325.235 54.5219L325.25 54.5242L325.265 54.5257C336.92 55.6315 341.75 60.0264 342.859 61.287Z" stroke="#FF6F1D" stroke-width="1.05954"/>
<path d="M328.325 76.3932C328.422 73.6758 327.214 72.1349 324.699 71.7705" stroke="#FF6F1D" stroke-width="1.06339" stroke-linecap="round" stroke-linejoin="round"/>
<path d="M331.648 77.8892C331.913 75.3732 331.368 73.202 330.015 71.3756C328.655 69.5426 326.654 68.4203 324.002 67.9773" stroke="#FF6F1D" stroke-width="1.06339" stroke-linecap="round" stroke-linejoin="round"/>
<path d="M335.024 79.6224C335.359 75.2453 334.386 71.6863 332.104 68.9455C329.821 66.2046 326.827 64.6534 323.121 64.292" stroke="#FF6F1D" stroke-width="1.06339" stroke-linecap="round" stroke-linejoin="round"/>
<path d="M323.563 85.8011L323.521 85.7856C320.01 84.5129 317.941 81.952 316.757 79.7384C316.165 78.6309 315.789 77.6029 315.562 76.8508C315.448 76.4743 315.37 76.1656 315.321 75.9492C315.297 75.8409 315.279 75.7555 315.267 75.6962C315.262 75.6665 315.257 75.6432 315.254 75.6269L315.251 75.6075L315.25 75.6018L315.25 75.5999L315.249 75.5993C315.249 75.599 315.249 75.5988 315.772 75.5143M323.563 85.8011L310.655 66.7984C310.655 66.7983 310.655 66.7981 310.655 66.798C311.38 66.0973 312.203 65.5156 313.095 65.0725L313.196 65.0292C313.604 64.8538 313.951 64.8343 314.23 64.9089C314.506 64.9828 314.763 65.1615 314.975 65.4709L314.977 65.4742M323.563 85.8011L323.608 85.8091M323.563 85.8011L323.608 85.8091M315.772 75.5143C315.242 75.5114 315.242 75.5112 315.242 75.5111L315.242 75.5107L315.242 75.5098L315.242 75.5079L315.242 75.5028L315.242 75.4884C315.243 75.477 315.243 75.4619 315.244 75.4435C315.246 75.4067 315.249 75.3564 315.255 75.2957C315.268 75.1752 315.293 75.009 315.344 74.8235C315.443 74.4632 315.658 73.9676 316.135 73.6356L316.138 73.6332L316.138 73.6332L317.461 72.7268L317.468 72.7223L317.468 72.7223C317.9 72.4358 318.324 71.563 317.896 70.5731C317.498 69.6773 317.057 68.8026 316.574 67.9524C316.341 67.5557 315.945 66.9402 315.601 66.4149C315.43 66.1533 315.273 65.9168 315.159 65.7455C315.102 65.6599 315.055 65.5906 315.023 65.5427L314.986 65.4878L314.977 65.4748L314.977 65.4742M315.772 75.5143L315.249 75.5988L315.242 75.5554L315.242 75.5114L315.772 75.5143ZM314.977 65.4742C314.976 65.473 314.976 65.4724 314.976 65.4723M314.977 65.4742L314.976 65.4729L314.976 65.4723M314.976 65.4723C314.976 65.4723 314.976 65.4723 314.976 65.4723L314.976 65.4723ZM323.608 85.8091L323.698 85.2873M323.608 85.8091L323.698 85.2873M323.698 85.2873C323.608 85.8091 323.608 85.8091 323.608 85.8092L323.609 85.8092L323.61 85.8094L323.612 85.8097L323.617 85.8106L323.631 85.8129C323.642 85.8147 323.657 85.8168 323.675 85.8191C323.712 85.8237 323.761 85.829 323.821 85.8329C323.94 85.8407 324.105 85.8434 324.294 85.8227C324.662 85.7824 325.176 85.6456 325.574 85.2193L325.574 85.2194M323.698 85.2873L325.574 85.2194M325.574 85.2194L325.578 85.2154M325.574 85.2194L325.578 85.2154M325.578 85.2154L326.669 84.0234L326.669 84.0234M325.578 85.2154L326.669 84.0234M326.669 84.0234L326.674 84.0181M326.669 84.0234L326.674 84.0181M326.674 84.0181C327.023 83.6262 327.901 83.3581 328.747 83.9498C329.529 84.5098 330.284 85.1099 331.008 85.7479C331.345 86.0549 331.862 86.5659 332.303 87.0081C332.522 87.2284 332.72 87.4291 332.864 87.575L333.035 87.7487L333.084 87.7978L333.1 87.8144L333.101 87.8155C333.354 88.0818 333.484 88.3769 333.508 88.682C333.532 88.9931 333.449 89.3543 333.208 89.7451L333.143 89.8511M326.674 84.0181L333.143 89.8511M333.143 89.8511C332.567 90.6816 331.873 91.4166 331.086 92.0314L331.08 92.0352C331.08 92.0358 331.079 92.0363 331.078 92.0369C331.072 92.0412 331.066 92.0455 331.06 92.0496L331.057 92.0521C330.356 92.5586 329.733 92.7878 329.182 92.8054L329.167 92.8059L329.152 92.8073C329.091 92.8128 329.029 92.8112 328.968 92.8026L328.952 92.8004L328.936 92.7991C328.753 92.7844 328.572 92.7462 328.397 92.6854L328.377 92.6489L328.196 92.5779C327.233 92.2005 325.588 91.3055 322.821 89.3839L322.819 89.3823C321.237 88.2954 319.746 87.0716 318.364 85.724L318.363 85.7239C317.674 85.0527 317.023 84.341 316.412 83.5924C316.412 83.5922 316.412 83.5921 316.412 83.5919L316.346 83.5111L316.28 83.4292L316.213 83.3474L316.213 83.3473L316.208 83.3407C316.196 83.3269 316.187 83.3159 316.176 83.3013C316.168 83.2917 316.159 83.2806 316.147 83.2661C315.54 82.5142 314.976 81.7269 314.456 80.9079L314.456 80.9078C313.412 79.2647 312.504 77.533 311.742 75.7313L311.741 75.729C310.39 72.5753 309.821 70.7421 309.628 69.6884L309.593 69.5009L309.562 69.4741C309.532 69.2783 309.527 69.079 309.545 68.8811L309.547 68.8645L309.547 68.8479C309.55 68.7813 309.559 68.7152 309.576 68.6509L309.579 68.6385L309.581 68.626C309.7 68.0535 310.033 67.4509 310.634 66.8202L310.635 66.819L333.143 89.8511ZM333.158 89.8559L333.158 89.8559L333.158 89.8559Z" stroke="#FF6F1D" stroke-width="1.05954"/>
<rect x="0.483313" y="0.575534" width="66.771" height="69.1105" rx="14.001" transform="matrix(0.995951 0.0898927 -0.08364 0.996496 291.609 43.3219)" stroke="#FF6E1D" stroke-width="1.05954"/>
<rect x="0.483313" y="0.575534" width="66.771" height="69.1105" rx="10.7719" transform="matrix(0.995951 0.0898927 -0.08364 0.996496 365.306 49.9735)" fill="white"/>
<path d="M373.313 86.0266L373.32 86.0245L373.327 86.0223C386.093 81.8452 394.597 79.1015 398.844 77.79C404.915 75.9153 408.566 74.8281 410.896 74.2245C413.234 73.6189 414.193 73.5147 414.904 73.5695C415.042 73.5802 415.284 73.6197 415.539 73.707C415.798 73.7953 416.037 73.9209 416.203 74.0839C416.473 74.3495 416.535 74.6847 416.558 74.9886C416.581 75.2949 416.579 76.0045 416.478 76.5307C415.218 83.0966 410.954 98.9531 408.854 106.269C407.977 109.322 406.815 109.98 406.01 109.978C404.913 109.974 403.971 109.528 403.003 108.829C402.518 108.478 402.036 108.071 401.529 107.633C401.445 107.56 401.36 107.487 401.275 107.413C400.848 107.043 400.402 106.656 399.932 106.281C398.2 104.895 396.849 103.776 395.507 102.663L395.33 102.516C394.048 101.452 392.76 100.384 391.148 99.0875C390.197 98.3229 389.716 97.7171 389.518 97.2313C389.334 96.78 389.384 96.4052 389.597 96.0221C389.827 95.6093 390.246 95.1914 390.812 94.7149C391.06 94.5067 391.326 94.295 391.606 94.0716C391.643 94.0427 391.679 94.0137 391.716 93.9845C392.035 93.7304 392.369 93.4622 392.701 93.1771C392.856 93.0441 393.614 92.4625 394.692 91.6358C395.909 90.702 397.535 89.4553 399.16 88.1888C400.682 87.0018 402.196 85.8031 403.349 84.8456C403.925 84.3674 404.416 83.9453 404.774 83.6129C404.953 83.4472 405.104 83.2983 405.219 83.1726C405.276 83.1098 405.328 83.0474 405.372 82.9875C405.411 82.9347 405.464 82.8546 405.496 82.7603L405.064 82.6148L405.496 82.7603C405.534 82.6483 405.565 82.4606 405.555 82.26C405.544 82.0597 405.488 81.7735 405.273 81.5426L404.939 81.8529L405.273 81.5426C405.059 81.3134 404.79 81.2352 404.571 81.2127C404.357 81.1907 404.149 81.2173 404.018 81.2342C403.924 81.2464 403.821 81.2888 403.763 81.3127C403.683 81.3456 403.583 81.3909 403.464 81.4467C403.226 81.5589 402.896 81.7222 402.479 81.9351C401.642 82.3614 400.437 82.9935 398.866 83.8304C395.722 85.5047 391.103 88.0031 385.01 91.3251L385.006 91.3269C383.263 92.2953 381.788 92.6675 380.561 92.5241C379.866 92.4431 378.831 92.1424 377.683 91.7361C376.546 91.3334 375.334 90.8396 374.299 90.3913C373.978 90.2522 373.67 90.1221 373.377 89.9982C372.472 89.6165 371.708 89.2936 371.137 88.947C370.764 88.7207 370.524 88.5117 370.391 88.3123C370.27 88.1319 370.229 87.9485 370.281 87.7147C370.324 87.5237 370.512 87.2535 371.035 86.9375C371.544 86.6292 372.297 86.323 373.313 86.0266Z" fill="white" stroke="#FB6B1A" stroke-width="0.910844"/>
<rect x="0.483313" y="0.575534" width="66.771" height="69.1105" rx="10.7719" transform="matrix(0.995951 0.0898927 -0.08364 0.996496 365.306 49.9735)" stroke="#FF6E1D" stroke-width="1.05954"/>
<rect x="0.483313" y="0.575534" width="66.771" height="69.1105" rx="10.7719" transform="matrix(0.995951 0.0898927 -0.08364 0.996496 432.603 132.906)" fill="white"/>
<path d="M459.851 163.496L458.241 158.535C458.106 158.121 457.737 157.825 457.303 157.786C456.075 157.675 454.856 158.057 453.914 158.848L453.453 159.236C452.849 159.742 452.402 160.409 452.162 161.161L452.015 161.62C451.688 162.645 451.644 163.743 451.89 164.795L452.187 166.069C452.537 167.567 453.148 168.993 453.992 170.281L455.199 172.121C456.352 173.88 457.762 175.457 459.381 176.798L460.62 177.824C461.85 178.843 463.211 179.691 464.666 180.345L466.132 181.004C467.096 181.438 468.125 181.708 469.175 181.802L469.329 181.816C470.261 181.9 471.194 181.69 471.997 181.215L472.076 181.168C473.355 180.411 474.326 179.227 474.82 177.822L475.042 177.189C475.196 176.752 475.011 176.267 474.605 176.04L470.322 173.649C469.652 173.275 468.82 173.375 468.263 173.897L466.405 175.637C466.136 175.889 465.73 175.927 465.417 175.729L464.302 175.027C462.066 173.617 460.163 171.735 458.727 169.514L457.65 167.848C457.477 167.581 457.512 167.23 457.733 167.005L459.435 165.273C459.894 164.807 460.054 164.122 459.851 163.496Z" stroke="#FF6F1D" stroke-width="1.05954"/>
<mask id="path-19-inside-1_1719_4115" fill="white">
<path fill-rule="evenodd" clip-rule="evenodd" d="M443.646 167.854C443.281 172.212 444.335 176.371 446.424 179.87L444.937 183.444L443.673 186.666L447.56 186.057L447.571 186.066L451.289 185.412C454.26 187.757 457.919 189.296 461.958 189.66C472.999 190.657 482.7 182.509 483.627 171.463C484.555 160.416 476.356 150.654 465.316 149.657C454.275 148.661 444.573 156.808 443.646 167.854ZM450.352 189.744C453.614 191.922 457.447 193.338 461.618 193.714C474.896 194.913 486.565 185.114 487.68 171.829C488.795 158.543 478.934 146.801 465.656 145.603C452.378 144.404 440.709 154.203 439.594 167.489C439.219 171.954 440.084 176.245 441.902 180.02L439.008 187.396L437.284 191.79L441.949 191.06L450.352 189.744Z"/>
</mask>
<path d="M446.424 179.87L447.402 180.283L447.607 179.79L447.332 179.33L446.424 179.87ZM444.937 183.444L443.959 183.031L443.955 183.041L443.951 183.051L444.937 183.444ZM443.673 186.666L442.687 186.273L442.009 188L443.843 187.713L443.673 186.666ZM447.56 186.057L448.215 185.229L447.849 184.938L447.39 185.01L447.56 186.057ZM447.571 186.066L446.916 186.895L447.291 187.193L447.761 187.111L447.571 186.066ZM451.289 185.412L451.941 184.581L451.567 184.286L451.099 184.368L451.289 185.412ZM450.352 189.744L450.936 188.863L450.591 188.633L450.182 188.697L450.352 189.744ZM441.902 180.02L442.888 180.413L443.057 179.983L442.856 179.564L441.902 180.02ZM439.008 187.396L439.994 187.789L439.008 187.396ZM437.284 191.79L436.298 191.398L435.62 193.125L437.454 192.838L437.284 191.79ZM441.949 191.06L442.119 192.107L442.119 192.107L441.949 191.06ZM447.332 179.33C445.354 176.016 444.355 172.079 444.702 167.95L442.591 167.759C442.206 172.346 443.317 176.726 445.516 180.41L447.332 179.33ZM445.915 183.857L447.402 180.283L445.446 179.457L443.959 183.031L445.915 183.857ZM444.659 187.059L445.923 183.837L443.951 183.051L442.687 186.273L444.659 187.059ZM447.39 185.01L443.503 185.618L443.843 187.713L447.73 187.105L447.39 185.01ZM448.227 185.238L448.215 185.229L446.904 186.886L446.916 186.895L448.227 185.238ZM451.099 184.368L447.382 185.022L447.761 187.111L451.478 186.456L451.099 184.368ZM462.047 188.604C458.219 188.259 454.755 186.802 451.941 184.581L450.636 186.243C453.765 188.713 457.618 190.332 461.869 190.716L462.047 188.604ZM482.572 171.368C481.694 181.831 472.504 189.548 462.047 188.604L461.869 190.716C473.493 191.765 483.707 183.188 484.683 171.558L482.572 171.368ZM465.227 150.713C475.685 151.657 483.45 160.904 482.572 171.368L484.683 171.558C485.659 159.928 477.028 149.65 465.404 148.601L465.227 150.713ZM444.702 167.95C445.58 157.486 454.769 149.769 465.227 150.713L465.404 148.601C453.781 147.552 443.567 156.129 442.591 167.759L444.702 167.95ZM449.769 190.625C453.175 192.899 457.178 194.378 461.529 194.77L461.706 192.659C457.717 192.299 454.054 190.944 450.936 188.863L449.769 190.625ZM461.529 194.77C475.39 196.021 487.571 185.793 488.735 171.924L486.624 171.733C485.558 184.436 474.402 193.805 461.706 192.659L461.529 194.77ZM488.735 171.924C489.899 158.055 479.606 145.798 465.745 144.547L465.567 146.659C478.263 147.804 487.691 159.031 486.624 171.733L488.735 171.924ZM465.745 144.547C451.883 143.296 439.703 153.524 438.539 167.393L440.649 167.584C441.716 154.881 452.872 145.513 465.567 146.659L465.745 144.547ZM438.539 167.393C438.148 172.053 439.051 176.534 440.949 180.475L442.856 179.564C441.118 175.956 440.291 171.855 440.649 167.584L438.539 167.393ZM440.916 179.627L438.022 187.003L439.994 187.789L442.888 180.413L440.916 179.627ZM438.022 187.003L436.298 191.398L438.27 192.183L439.994 187.789L438.022 187.003ZM437.454 192.838L442.119 192.107L441.779 190.013L437.114 190.743L437.454 192.838ZM442.119 192.107L450.522 190.791L450.182 188.697L441.779 190.013L442.119 192.107Z" fill="#FF6F1D" mask="url(#path-19-inside-1_1719_4115)"/>
<rect x="0.483313" y="0.575534" width="66.771" height="69.1105" rx="10.7719" transform="matrix(0.995951 0.0898927 -0.08364 0.996496 432.603 132.906)" stroke="#FF6E1D" stroke-width="1.05954"/>
<rect x="0.483313" y="0.575534" width="66.771" height="69.1105" rx="10.7719" transform="matrix(0.995951 0.0898927 -0.08364 0.996496 211.507 112.951)" fill="white"/>
<path d="M238.759 143.541L237.149 138.58C237.014 138.165 236.645 137.87 236.211 137.831C234.983 137.72 233.764 138.102 232.822 138.893L232.361 139.28C231.758 139.787 231.31 140.454 231.07 141.206L230.924 141.664C230.596 142.69 230.552 143.787 230.798 144.84L231.095 146.114C231.445 147.612 232.056 149.038 232.9 150.326L234.107 152.166C235.26 153.925 236.67 155.501 238.289 156.843L239.529 157.869C240.758 158.888 242.119 159.736 243.574 160.39L245.04 161.049C246.004 161.482 247.033 161.752 248.084 161.847L248.237 161.861C249.169 161.945 250.103 161.735 250.906 161.259L250.984 161.213C252.264 160.456 253.235 159.271 253.728 157.866L253.95 157.234C254.104 156.797 253.919 156.311 253.513 156.085L249.23 153.694C248.56 153.32 247.728 153.42 247.171 153.941L245.313 155.682C245.044 155.934 244.638 155.971 244.325 155.774L243.211 155.071C240.975 153.661 239.071 151.78 237.635 149.559L236.558 147.893C236.385 147.626 236.42 147.275 236.642 147.049L238.343 145.318C238.802 144.851 238.962 144.167 238.759 143.541Z" stroke="#FF6F1D" stroke-width="1.05954"/>
<mask id="path-23-inside-2_1719_4115" fill="white">
<path fill-rule="evenodd" clip-rule="evenodd" d="M222.547 147.899C222.181 152.257 223.236 156.416 225.325 159.915L223.837 163.489L222.573 166.711L226.46 166.102L226.472 166.111L230.189 165.457C233.16 167.802 236.819 169.34 240.858 169.705C251.899 170.702 261.601 162.554 262.528 151.508C263.455 140.461 255.257 130.698 244.216 129.702C233.176 128.705 223.474 136.853 222.547 147.899ZM229.253 169.789C232.515 171.967 236.348 173.383 240.518 173.759C253.797 174.958 265.465 165.159 266.58 151.874C267.695 138.588 257.835 126.846 244.556 125.648C231.278 124.449 219.61 134.248 218.495 147.533C218.12 151.999 218.985 156.29 220.803 160.065L217.909 167.441L216.185 171.835L220.849 171.105L229.253 169.789Z"/>
</mask>
<path d="M225.325 159.915L226.303 160.328L226.508 159.835L226.233 159.375L225.325 159.915ZM223.837 163.489L222.86 163.076L222.855 163.086L222.852 163.096L223.837 163.489ZM222.573 166.711L221.587 166.318L220.91 168.045L222.743 167.758L222.573 166.711ZM226.46 166.102L227.116 165.274L226.75 164.983L226.29 165.055L226.46 166.102ZM226.472 166.111L225.816 166.94L226.192 167.238L226.661 167.155L226.472 166.111ZM230.189 165.457L230.842 164.626L230.467 164.331L230 164.413L230.189 165.457ZM229.253 169.789L229.836 168.908L229.491 168.678L229.083 168.742L229.253 169.789ZM220.803 160.065L221.789 160.458L221.958 160.027L221.756 159.609L220.803 160.065ZM217.909 167.441L218.895 167.834L217.909 167.441ZM216.185 171.835L215.199 171.442L214.521 173.17L216.355 172.883L216.185 171.835ZM220.849 171.105L221.019 172.152L221.019 172.152L220.849 171.105ZM226.233 159.375C224.254 156.061 223.255 152.124 223.602 147.994L221.491 147.804C221.106 152.391 222.217 156.771 224.417 160.455L226.233 159.375ZM224.815 163.902L226.303 160.328L224.347 159.502L222.86 163.076L224.815 163.902ZM223.559 167.104L224.823 163.882L222.852 163.096L221.587 166.318L223.559 167.104ZM226.29 165.055L222.403 165.663L222.743 167.758L226.63 167.149L226.29 165.055ZM227.127 165.283L227.116 165.274L225.805 166.931L225.816 166.94L227.127 165.283ZM230 164.413L226.282 165.067L226.661 167.155L230.379 166.501L230 164.413ZM240.947 168.649C237.119 168.304 233.655 166.847 230.842 164.626L229.537 166.288C232.665 168.758 236.519 170.377 240.77 170.761L240.947 168.649ZM261.473 151.413C260.594 161.876 251.405 169.593 240.947 168.649L240.77 170.761C252.393 171.81 262.607 163.233 263.583 151.603L261.473 151.413ZM244.127 130.758C254.585 131.702 262.351 140.949 261.473 151.413L263.583 151.603C264.559 139.973 255.928 129.695 244.305 128.646L244.127 130.758ZM223.602 147.994C224.48 137.531 233.67 129.814 244.127 130.758L244.305 128.646C232.681 127.597 222.468 136.174 221.491 147.804L223.602 147.994ZM228.669 170.67C232.075 172.944 236.078 174.422 240.43 174.815L240.607 172.704C236.618 172.344 232.954 170.989 229.836 168.908L228.669 170.67ZM240.43 174.815C254.291 176.066 266.471 165.838 267.635 151.969L265.525 151.778C264.459 164.481 253.302 173.849 240.607 172.704L240.43 174.815ZM267.635 151.969C268.799 138.1 258.506 125.843 244.645 124.592L244.468 126.703C257.163 127.849 266.591 139.076 265.525 151.778L267.635 151.969ZM244.645 124.592C230.784 123.341 218.603 133.569 217.439 147.438L219.55 147.629C220.616 134.926 231.772 125.558 244.468 126.703L244.645 124.592ZM217.439 147.438C217.048 152.098 217.951 156.579 219.85 160.52L221.756 159.609C220.018 156.001 219.191 151.9 219.55 147.629L217.439 147.438ZM219.817 159.672L216.923 167.048L218.895 167.834L221.789 160.458L219.817 159.672ZM216.923 167.048L215.199 171.442L217.171 172.228L218.895 167.834L216.923 167.048ZM216.355 172.883L221.019 172.152L220.679 170.057L216.015 170.788L216.355 172.883ZM221.019 172.152L229.423 170.836L229.083 168.742L220.679 170.057L221.019 172.152Z" fill="#FF6F1D" mask="url(#path-23-inside-2_1719_4115)"/>
<rect x="0.483313" y="0.575534" width="66.771" height="69.1105" rx="10.7719" transform="matrix(0.995951 0.0898927 -0.08364 0.996496 211.507 112.951)" stroke="#FF6E1D" stroke-width="1.05954"/>
<rect x="0.483313" y="0.575534" width="66.771" height="69.1105" rx="14.001" transform="matrix(0.995951 0.0898927 -0.08364 0.996496 439.007 56.6251)" fill="white"/>
<path d="M479.378 114.9C478.619 115.082 471.975 116.179 463.582 114.679C462.554 115.718 461.193 117.075 460.212 117.994L479.378 114.9ZM479.378 114.9C479.535 114.863 479.756 114.825 480.029 114.779M479.378 114.9L480.029 114.779M480.029 114.779C482.821 114.307 491.141 112.899 493.586 100.94L480.029 114.779ZM490.259 74.5897L490.265 74.5959L490.271 74.602C494.104 78.6951 495.83 87.333 493.067 100.831L493.067 100.831C491.753 107.257 488.726 110.514 485.859 112.232C483.497 113.648 481.247 114.032 479.969 114.25C479.675 114.3 479.433 114.341 479.252 114.384L479.252 114.384C478.556 114.551 471.986 115.643 463.671 114.157L463.398 114.108L463.204 114.305C462.177 115.343 460.822 116.694 459.849 117.606C459.549 117.888 459.261 118.172 458.992 118.438C458.858 118.571 458.728 118.699 458.604 118.82C458.222 119.192 457.882 119.504 457.555 119.741C457.23 119.977 456.943 120.119 456.673 120.176C456.414 120.23 456.14 120.211 455.818 120.075L455.818 120.075C455.39 119.895 455.162 119.437 455.065 118.862C455.019 118.59 455.01 118.328 455.013 118.133C455.015 118.036 455.019 117.958 455.023 117.905C455.025 117.878 455.027 117.859 455.028 117.846L455.029 117.833L455.03 117.832L455.03 117.832L455.03 117.832L455.03 117.831L455.03 117.831L455.031 117.823L455.031 117.814L455.5 112.323L455.545 111.794L455.081 111.752C449.301 109.466 446.722 105.159 445.664 100.519C444.594 95.8292 445.089 90.8311 445.457 87.2867C446.187 80.2606 447.971 74.8392 451.91 71.4086C455.433 68.6105 460.572 67.6926 464.912 67.4969C467.071 67.3995 469.005 67.4818 470.4 67.5886C471.097 67.642 471.659 67.7014 472.044 67.7472C472.237 67.7702 472.386 67.7897 472.486 67.8034C472.536 67.8103 472.574 67.8157 472.599 67.8193L472.627 67.8234L472.633 67.8244L472.635 67.8246L472.635 67.8246L472.635 67.8246L472.65 67.827L472.665 67.8284C484.32 68.9342 489.15 73.3291 490.259 74.5897Z" stroke="#FF6F1D" stroke-width="1.05954"/>
<path d="M475.719 89.6963C475.817 86.9789 474.608 85.438 472.094 85.0736" stroke="#FF6F1D" stroke-width="1.06339" stroke-linecap="round" stroke-linejoin="round"/>
<path d="M479.045 91.1922C479.309 88.6762 478.765 86.505 477.411 84.6786C476.051 82.8456 474.05 81.7233 471.398 81.2803" stroke="#FF6F1D" stroke-width="1.06339" stroke-linecap="round" stroke-linejoin="round"/>
<path d="M482.423 92.9256C482.758 88.5485 481.784 84.9896 479.502 82.2487C477.22 79.5078 474.226 77.9567 470.52 77.5952" stroke="#FF6F1D" stroke-width="1.06339" stroke-linecap="round" stroke-linejoin="round"/>
<path d="M470.956 99.1035L470.913 99.088C467.403 97.8152 465.334 95.2544 464.15 93.0408C463.558 91.9333 463.182 90.9053 462.955 90.1531C462.841 89.7766 462.763 89.468 462.714 89.2515C462.689 89.1432 462.672 89.0579 462.66 88.9985C462.654 88.9688 462.65 88.9456 462.647 88.9293L462.644 88.9099L462.643 88.9042L462.642 88.9023L462.642 88.9016C462.642 88.9014 462.642 88.9011 463.164 88.8166M470.956 99.1035L458.048 80.1008C458.048 80.1007 458.048 80.1005 458.048 80.1004C458.773 79.3996 459.596 78.818 460.488 78.3749L460.589 78.3315C460.997 78.1562 461.344 78.1367 461.623 78.2112C461.899 78.2851 462.156 78.4639 462.368 78.7733L462.37 78.7766M470.956 99.1035L471.001 99.1115M470.956 99.1035L471.001 99.1115M463.164 88.8166C462.635 88.8138 462.635 88.8136 462.635 88.8134L462.635 88.813L462.635 88.8122L462.635 88.8102L462.635 88.8052L462.635 88.7908C462.635 88.7794 462.636 88.7643 462.637 88.7458C462.638 88.7091 462.642 88.6588 462.648 88.5981C462.661 88.4776 462.686 88.3113 462.737 88.1259C462.836 87.7655 463.051 87.27 463.528 86.9379L463.531 86.9356L463.531 86.9356L464.854 86.0292L464.861 86.0246L464.861 86.0247C465.293 85.7382 465.717 84.8654 465.289 83.8755C464.891 82.9796 464.449 82.1049 463.967 81.2547C463.734 80.858 463.338 80.2426 462.994 79.7173C462.822 79.4556 462.666 79.2192 462.551 79.0479C462.494 78.9623 462.448 78.893 462.416 78.8451L462.379 78.7902L462.37 78.7771L462.37 78.7766M463.164 88.8166L462.642 88.9011L462.635 88.8577L462.635 88.8138L463.164 88.8166ZM462.37 78.7766C462.369 78.7753 462.369 78.7748 462.369 78.7747M462.37 78.7766L462.369 78.7752L462.369 78.7747M462.369 78.7747C462.369 78.7747 462.369 78.7747 462.369 78.7747L462.369 78.7747ZM471.001 99.1115L471.091 98.5897M471.001 99.1115L471.091 98.5897M471.091 98.5897C471.001 99.1115 471.001 99.1115 471.001 99.1115L471.002 99.1116L471.003 99.1118L471.005 99.1121L471.01 99.113L471.024 99.1153C471.035 99.117 471.05 99.1192 471.068 99.1215C471.104 99.1261 471.154 99.1314 471.214 99.1353C471.333 99.1431 471.498 99.1457 471.687 99.1251C472.055 99.0847 472.569 98.948 472.967 98.5217L472.967 98.5217M471.091 98.5897L472.967 98.5217M472.967 98.5217L472.971 98.5178M472.967 98.5217L472.971 98.5178M472.971 98.5178L474.062 97.3257L474.062 97.3258M472.971 98.5178L474.062 97.3258M474.062 97.3258L474.067 97.3205M474.062 97.3258L474.067 97.3205M474.067 97.3205C474.416 96.9285 475.294 96.6605 476.14 97.2522C476.922 97.8122 477.677 98.4123 478.401 99.0503C478.738 99.3572 479.255 99.8683 479.696 100.31C479.915 100.531 480.113 100.731 480.257 100.877L480.428 101.051L480.477 101.1L480.493 101.117L480.494 101.118C480.747 101.384 480.877 101.679 480.9 101.984C480.925 102.295 480.842 102.657 480.601 103.048L480.536 103.153M474.067 97.3205L480.536 103.153M480.536 103.153C479.96 103.984 479.266 104.719 478.479 105.334L478.473 105.338C478.472 105.338 478.472 105.339 478.471 105.339C478.465 105.344 478.459 105.348 478.453 105.352L478.45 105.354C477.749 105.861 477.126 106.09 476.575 106.108L476.56 106.108L476.545 106.11C476.484 106.115 476.422 106.114 476.361 106.105L476.345 106.103L476.329 106.101C476.146 106.087 475.964 106.049 475.79 105.988L475.77 105.951L475.589 105.88C474.626 105.503 472.981 104.608 470.214 102.686L470.212 102.685C468.63 101.598 467.139 100.374 465.756 99.0264L465.756 99.0263C465.067 98.3551 464.416 97.6434 463.805 96.8948C463.805 96.8946 463.805 96.8944 463.805 96.8943L463.739 96.8135L463.673 96.7316L463.606 96.6497L463.606 96.6497L463.601 96.643C463.589 96.6292 463.58 96.6183 463.568 96.6036C463.561 96.5941 463.552 96.583 463.54 96.5685C462.933 95.8166 462.368 95.0292 461.848 94.2102L461.848 94.2101C460.805 92.5671 459.897 90.8354 459.135 89.0336L459.134 89.0314C457.783 85.8776 457.214 84.0445 457.021 82.9908L456.986 82.8032L456.955 82.7765C456.925 82.5807 456.92 82.3814 456.938 82.1834L456.94 82.1669L456.94 82.1502C456.942 82.0836 456.952 82.0175 456.968 81.9533L456.972 81.9409L456.974 81.9284C457.093 81.3559 457.426 80.7532 458.027 80.1226L458.028 80.1214L480.536 103.153ZM480.55 103.158L480.55 103.158L480.55 103.158Z" stroke="#FF6F1D" stroke-width="1.05954"/>
<rect x="0.483313" y="0.575534" width="66.771" height="69.1105" rx="14.001" transform="matrix(0.995951 0.0898927 -0.08364 0.996496 439.007 56.6251)" stroke="#FF6E1D" stroke-width="1.05954"/>
<rect x="0.483313" y="0.575534" width="66.771" height="69.1105" rx="10.7719" transform="matrix(0.995951 0.0898927 -0.08364 0.996496 7.07353 21.1418)" fill="white"/>
<path d="M34.3254 51.7316L32.7153 46.7707C32.5807 46.3559 32.2113 46.0607 31.7779 46.0215C30.5494 45.9107 29.3302 46.2926 28.3886 47.0833L27.9272 47.4708C27.324 47.9773 26.8767 48.6446 26.6365 49.3962L26.49 49.8548C26.1621 50.8807 26.1187 51.978 26.3642 53.0302L26.6616 54.3046C27.0112 55.8024 27.6223 57.2282 28.4667 58.5161L29.6735 60.3567C30.8265 62.1154 32.2364 63.6918 33.8558 65.0331L35.095 66.0595C36.3248 67.0781 37.6857 67.9261 39.1406 68.5803L40.6067 69.2395C41.5707 69.673 42.5992 69.9428 43.6499 70.0376L43.8035 70.0515C44.7357 70.1356 45.6689 69.9252 46.4719 69.4499L46.5505 69.4034C47.8301 68.6461 48.8011 67.4619 49.2946 66.057L49.5168 65.4243C49.6702 64.9876 49.4855 64.5019 49.0797 64.2754L44.7967 61.8843C44.1267 61.5103 43.2948 61.6103 42.7377 62.132L40.8792 63.8724C40.6103 64.1241 40.2046 64.1619 39.8913 63.9643L38.7771 63.2618C36.5409 61.8519 34.6377 59.9702 33.2015 57.7493L32.1243 56.0835C31.9514 55.8161 31.9862 55.4656 32.208 55.2399L33.9097 53.5084C34.3683 53.0418 34.5285 52.3572 34.3254 51.7316Z" stroke="#FF6F1D" stroke-width="1.05954"/>
<mask id="path-33-inside-3_1719_4115" fill="white">
<path fill-rule="evenodd" clip-rule="evenodd" d="M18.1169 56.0904C17.7511 60.4486 18.8058 64.607 20.895 68.1061L19.4402 71.6019L18.1455 74.9017L22.0324 74.293L22.0439 74.3022L25.7595 73.6485C28.7303 75.9936 32.3893 77.5317 36.4287 77.8963C47.4692 78.8928 57.1709 70.7456 58.0981 59.6991C59.0253 48.6525 50.8268 38.8897 39.7863 37.8932C28.7458 36.8967 19.0441 45.0439 18.1169 56.0904ZM24.823 77.9803C28.0849 80.1578 31.9181 81.5742 36.0884 81.9506C49.3668 83.1491 61.0351 73.3505 62.1502 60.0648C63.2654 46.7791 53.4051 35.0373 40.1266 33.8389C26.8482 32.6404 15.1799 42.439 14.0648 55.7247C13.6899 60.191 14.5554 64.4828 16.3741 68.2582L13.4809 75.6321L11.7568 80.0263L16.4214 79.2959L24.823 77.9803Z"/>
</mask>
<path d="M20.895 68.1061L21.8729 68.5189L22.0778 68.0265L21.8031 67.5663L20.895 68.1061ZM19.4402 71.6019L18.4623 71.1891L18.4581 71.199L18.4542 71.2091L19.4402 71.6019ZM18.1455 74.9017L17.1595 74.5088L16.4818 76.2362L18.3155 75.9491L18.1455 74.9017ZM22.0324 74.293L22.6878 73.4645L22.322 73.1737L21.8624 73.2456L22.0324 74.293ZM22.0439 74.3022L21.3885 75.1308L21.7636 75.4291L22.2335 75.3464L22.0439 74.3022ZM25.7595 73.6485L26.412 72.8176L26.0376 72.522L25.5699 72.6043L25.7595 73.6485ZM24.823 77.9803L25.4067 77.0994L25.0615 76.8689L24.653 76.9329L24.823 77.9803ZM16.3741 68.2582L17.3601 68.651L17.5289 68.2208L17.3274 67.8025L16.3741 68.2582ZM13.4809 75.6321L14.4668 76.025L14.4668 76.025L13.4809 75.6321ZM11.7568 80.0263L10.7708 79.6335L10.093 81.3608L11.9267 81.0737L11.7568 80.0263ZM16.4214 79.2959L16.5913 80.3433L16.5914 80.3433L16.4214 79.2959ZM21.8031 67.5663C19.8243 64.2523 18.8256 60.3151 19.1722 56.1857L17.0617 55.9952C16.6767 60.5821 17.7872 64.9618 19.9869 68.6458L21.8031 67.5663ZM20.4181 72.0147L21.8729 68.5189L19.9171 67.6932L18.4623 71.1891L20.4181 72.0147ZM19.1315 75.2945L20.4262 71.9948L18.4542 71.2091L17.1595 74.5088L19.1315 75.2945ZM21.8624 73.2456L17.9755 73.8543L18.3155 75.9491L22.2023 75.3404L21.8624 73.2456ZM22.6994 73.4737L22.6878 73.4645L21.3769 75.1216L21.3885 75.1308L22.6994 73.4737ZM25.5699 72.6043L21.8544 73.2581L22.2335 75.3464L25.949 74.6926L25.5699 72.6043ZM36.5173 76.8404C32.6896 76.495 29.2253 75.0384 26.412 72.8176L25.107 74.4794C28.2352 76.9488 32.0889 78.5684 36.3401 78.9521L36.5173 76.8404ZM57.0429 59.6038C56.1646 70.0672 46.975 77.7843 36.5173 76.8404L36.3401 78.9521C47.9634 80.0012 58.1772 71.4239 59.1533 59.7943L57.0429 59.6038ZM39.6977 38.949C50.1554 39.8929 57.9211 49.1404 57.0429 59.6038L59.1533 59.7943C60.1295 48.1647 51.4982 37.8865 39.8749 36.8374L39.6977 38.949ZM19.1722 56.1857C20.0504 45.7223 29.24 38.0052 39.6977 38.949L39.8749 36.8374C28.2517 35.7883 18.0378 44.3655 17.0617 55.9952L19.1722 56.1857ZM24.2392 78.8611C27.6455 81.135 31.6482 82.6137 35.9998 83.0064L36.177 80.8948C32.1879 80.5347 28.5243 79.1806 25.4067 77.0994L24.2392 78.8611ZM35.9998 83.0064C49.861 84.2575 62.0414 74.0288 63.2055 60.16L61.095 59.9695C60.0288 72.6721 48.8727 82.0407 36.177 80.8948L35.9998 83.0064ZM63.2055 60.16C64.3696 46.2912 54.0765 34.0341 40.2152 32.783L40.038 34.8947C52.7336 36.0406 62.1612 47.267 61.095 59.9695L63.2055 60.16ZM40.2152 32.783C26.354 31.5319 14.1736 41.7606 13.0095 55.6294L15.12 55.8199C16.1862 43.1174 27.3424 33.7488 40.038 34.8947L40.2152 32.783ZM13.0095 55.6294C12.6183 60.29 13.5217 64.7717 15.4208 68.7139L17.3274 67.8025C15.589 64.1938 14.7615 60.0919 15.12 55.8199L13.0095 55.6294ZM15.3881 67.8653L12.4949 75.2393L14.4668 76.025L17.3601 68.651L15.3881 67.8653ZM12.4949 75.2393L10.7708 79.6335L12.7427 80.4191L14.4668 76.025L12.4949 75.2393ZM11.9267 81.0737L16.5913 80.3433L16.2514 78.2485L11.5868 78.9789L11.9267 81.0737ZM16.5914 80.3433L24.9929 79.0277L24.653 76.9329L16.2514 78.2485L16.5914 80.3433Z" fill="#FF6F1D" mask="url(#path-33-inside-3_1719_4115)"/>
<rect x="0.483313" y="0.575534" width="66.771" height="69.1105" rx="10.7719" transform="matrix(0.995951 0.0898927 -0.08364 0.996496 7.07353 21.1418)" stroke="#FF6E1D" stroke-width="1.05954"/>
<rect x="0.483313" y="0.575534" width="66.771" height="69.1105" rx="14.001" transform="matrix(0.995951 0.0898927 -0.08364 0.996496 74.4329 97.828)" fill="white"/>
<path d="M90.0947 149.559L90.5636 149.808L90.7891 149.379L90.3803 149.115L90.0947 149.559ZM85.3516 155.395L84.9891 155.006L83.9255 156L85.3824 155.924L85.3516 155.395ZM95.7681 152.353L95.9437 151.854L95.7292 151.777L95.5268 151.88L95.7681 152.353ZM129.009 135.627C128.09 146.577 116.596 154.644 103.136 153.429L103.048 154.485C116.896 155.735 129.081 147.431 130.064 135.723L129.009 135.627ZM106.491 113.458C119.951 114.673 129.928 124.678 129.009 135.627L130.064 135.723C131.047 124.014 120.428 113.652 106.58 112.403L106.491 113.458ZM80.6184 131.26C81.5374 120.31 93.0317 112.244 106.491 113.458L106.58 112.403C92.731 111.153 80.5459 119.456 79.5631 131.164L80.6184 131.26ZM90.3803 149.115C83.9252 144.934 80.0273 138.302 80.6184 131.26L79.5631 131.164C78.9323 138.68 83.0992 145.659 89.809 150.004L90.3803 149.115ZM85.7142 155.783C88.3579 153.313 89.794 151.272 90.5636 149.808L89.6258 149.31C88.9195 150.653 87.5613 152.603 84.9891 155.006L85.7142 155.783ZM95.5268 151.88C92.7769 153.273 88.4601 154.702 85.3209 154.865L85.3824 155.924C88.7143 155.751 93.177 154.261 96.0095 152.827L95.5268 151.88ZM103.136 153.429C100.602 153.2 98.1873 152.658 95.9437 151.854L95.5925 152.852C97.9212 153.686 100.424 154.248 103.048 154.485L103.136 153.429Z" fill="#FF6F1D"/>
<rect x="0.483313" y="0.575534" width="66.771" height="69.1105" rx="14.001" transform="matrix(0.995951 0.0898927 -0.08364 0.996496 74.4329 97.828)" stroke="#FF6E1D" stroke-width="1.05954"/>
<rect x="0.552358" y="0.657753" width="66.6196" height="68.9592" rx="13.9253" transform="matrix(0.995951 0.0898927 -0.08364 0.996496 149.13 31.4727)" fill="white"/>
<path d="M158.313 68.0266L158.32 68.0245L158.327 68.0223C171.093 63.8452 179.597 61.1015 183.844 59.79C189.915 57.9153 193.566 56.8281 195.896 56.2245C198.234 55.6189 199.193 55.5147 199.904 55.5695C200.042 55.5802 200.284 55.6197 200.539 55.707C200.798 55.7953 201.037 55.9209 201.203 56.0839C201.473 56.3495 201.535 56.6847 201.558 56.9886C201.581 57.2949 201.579 58.0045 201.478 58.5307C200.218 65.0966 195.954 80.9531 193.854 88.2692C192.977 91.3218 191.815 91.9799 191.01 91.9776C189.913 91.9744 188.971 91.5279 188.003 90.8286C187.518 90.478 187.036 90.0711 186.529 89.6329C186.445 89.5604 186.36 89.487 186.275 89.413C185.848 89.0431 185.402 88.6565 184.932 88.281C183.2 86.895 181.849 85.7757 180.507 84.6631L180.33 84.516C179.048 83.4525 177.76 82.3843 176.148 81.0875C175.197 80.3229 174.716 79.7171 174.518 79.2313C174.334 78.78 174.384 78.4052 174.597 78.0221C174.827 77.6093 175.246 77.1914 175.812 76.7149C176.06 76.5067 176.326 76.295 176.606 76.0716C176.643 76.0427 176.679 76.0137 176.716 75.9845C177.035 75.7304 177.369 75.4622 177.701 75.1771C177.856 75.0441 178.614 74.4625 179.692 73.6358C180.909 72.702 182.535 71.4553 184.16 70.1888C185.682 69.0018 187.196 67.8031 188.349 66.8456C188.925 66.3674 189.416 65.9453 189.774 65.6129C189.953 65.4472 190.104 65.2983 190.219 65.1726C190.276 65.1098 190.328 65.0474 190.372 64.9875C190.411 64.9347 190.464 64.8546 190.496 64.7603L190.064 64.6148L190.496 64.7603C190.534 64.6483 190.565 64.4606 190.555 64.26C190.544 64.0597 190.488 63.7735 190.273 63.5426L189.939 63.8529L190.273 63.5426C190.059 63.3134 189.79 63.2352 189.571 63.2127C189.357 63.1907 189.149 63.2173 189.018 63.2342C188.924 63.2464 188.821 63.2888 188.763 63.3127C188.683 63.3456 188.583 63.3909 188.464 63.4467C188.226 63.5589 187.896 63.7222 187.479 63.9351C186.642 64.3614 185.437 64.9935 183.866 65.8304C180.722 67.5047 176.103 70.0031 170.01 73.3251L170.006 73.3269C168.263 74.2953 166.788 74.6675 165.561 74.5241C164.866 74.4431 163.831 74.1424 162.683 73.7361C161.546 73.3334 160.334 72.8396 159.299 72.3913C158.978 72.2522 158.67 72.1221 158.377 71.9982C157.472 71.6165 156.708 71.2936 156.137 70.947C155.764 70.7207 155.524 70.5117 155.391 70.3123C155.27 70.1319 155.229 69.9485 155.281 69.7147C155.324 69.5237 155.512 69.2535 156.035 68.9375C156.544 68.6292 157.297 68.323 158.313 68.0266Z" fill="white" stroke="#FB6B1A" stroke-width="0.910844"/>
<rect x="0.552358" y="0.657753" width="66.6196" height="68.9592" rx="13.9253" transform="matrix(0.995951 0.0898927 -0.08364 0.996496 149.13 31.4727)" stroke="#FF6E1D" stroke-width="1.2109"/>
<rect x="0.483313" y="0.575534" width="66.771" height="69.1105" rx="14.001" transform="matrix(0.995951 0.0898927 -0.08364 0.996496 229.804 -36.8989)" fill="white"/>
<path d="M270.175 21.3761C269.416 21.5582 262.772 22.6548 254.378 21.1551C253.351 22.1937 251.99 23.551 251.009 24.4702L270.175 21.3761ZM270.175 21.3761C270.332 21.3387 270.552 21.3014 270.826 21.255M270.175 21.3761L270.826 21.255M270.826 21.255C273.618 20.7828 281.938 19.3756 284.383 7.41618L270.826 21.255ZM281.056 -18.9342L281.062 -18.928L281.067 -18.9219C284.901 -14.8288 286.627 -6.19092 283.864 7.30671L283.864 7.3068C282.55 13.7329 279.523 16.9905 276.656 18.7084C274.294 20.1239 272.044 20.5078 270.766 20.7258C270.472 20.776 270.23 20.8173 270.049 20.8604L270.049 20.8606C269.353 21.0274 262.783 22.1189 254.468 20.6333L254.195 20.5845L254.001 20.781C252.974 21.8192 251.619 23.1704 250.646 24.0823C250.346 24.3637 250.058 24.6482 249.789 24.9141C249.655 25.0469 249.525 25.1751 249.401 25.296C249.019 25.668 248.679 25.9803 248.352 26.2171C248.027 26.4534 247.74 26.5955 247.47 26.6518C247.211 26.7059 246.937 26.6875 246.615 26.5515L246.615 26.5514C246.187 26.3707 245.959 25.9126 245.862 25.3378C245.816 25.0656 245.807 24.8044 245.81 24.609C245.812 24.5122 245.816 24.4337 245.82 24.3808C245.822 24.3544 245.824 24.3346 245.825 24.3222L245.826 24.3093L245.826 24.3083L245.826 24.308L245.827 24.3078L245.827 24.3074L245.827 24.3073L245.828 24.2994L245.828 24.2904L246.297 18.7987L246.342 18.2701L245.878 18.2281C240.098 15.9422 237.519 11.6349 236.46 6.99536C235.391 2.30527 235.886 -2.69282 236.254 -6.23724C236.984 -13.2634 238.768 -18.6847 242.707 -22.1154C246.23 -24.9135 251.369 -25.8313 255.708 -26.0271C257.867 -26.1244 259.802 -26.0421 261.197 -25.9353C261.894 -25.882 262.455 -25.8226 262.841 -25.7767C263.034 -25.7537 263.183 -25.7342 263.283 -25.7205C263.333 -25.7136 263.371 -25.7082 263.396 -25.7046L263.424 -25.7005L263.43 -25.6995L263.432 -25.6993L263.432 -25.6993L263.432 -25.6993L263.447 -25.697L263.462 -25.6955C275.117 -24.5897 279.947 -20.1948 281.056 -18.9342Z" stroke="#FF6F1D" stroke-width="1.05954"/>
<path d="M261.753 5.57954L261.71 5.56403C258.2 4.2913 256.131 1.73048 254.947 -0.483157C254.355 -1.59064 253.979 -2.61862 253.751 -3.37078C253.637 -3.74729 253.56 -4.05592 253.511 -4.27241C253.486 -4.38068 253.469 -4.46602 253.457 -4.5254C253.451 -4.5551 253.447 -4.57831 253.444 -4.59467L253.441 -4.61401L253.44 -4.61975L253.439 -4.62161L253.439 -4.62229C253.439 -4.62256 253.439 -4.6228 253.961 -4.7073M261.753 5.57954L248.845 -13.4231C248.845 -13.4233 248.845 -13.4234 248.845 -13.4236C249.57 -14.1243 250.392 -14.706 251.285 -15.1491L251.386 -15.1924C251.794 -15.3678 252.141 -15.3872 252.42 -15.3127C252.696 -15.2388 252.953 -15.06 253.164 -14.7507L253.167 -14.7473M261.753 5.57954L261.798 5.58754M261.753 5.57954L261.798 5.58754M253.961 -4.7073C253.432 -4.71013 253.432 -4.71031 253.432 -4.71049L253.432 -4.71088L253.432 -4.71173L253.432 -4.71371L253.432 -4.71876L253.432 -4.73313C253.432 -4.74456 253.433 -4.75967 253.434 -4.77808C253.435 -4.81483 253.439 -4.86512 253.445 -4.92582C253.458 -5.04635 253.483 -5.2126 253.534 -5.39801C253.633 -5.75838 253.848 -6.25394 254.325 -6.58599L254.328 -6.58834L254.328 -6.58833L255.651 -7.49475L255.657 -7.49928L255.657 -7.49923C256.09 -7.78577 256.514 -8.65856 256.086 -9.64841C255.687 -10.5443 255.246 -11.419 254.764 -12.2692C254.531 -12.6659 254.135 -13.2813 253.791 -13.8067C253.619 -14.0683 253.462 -14.3047 253.348 -14.476C253.291 -14.5617 253.245 -14.6309 253.213 -14.6788L253.176 -14.7338L253.167 -14.7468L253.167 -14.7473M253.961 -4.7073L253.439 -4.6228L253.432 -4.66618L253.432 -4.71013L253.961 -4.7073ZM253.167 -14.7473C253.166 -14.7486 253.166 -14.7492 253.165 -14.7493M253.167 -14.7473L253.166 -14.7487L253.165 -14.7493M253.165 -14.7493C253.165 -14.7493 253.165 -14.7493 253.165 -14.7493L253.165 -14.7493ZM261.798 5.58754L261.888 5.06577M261.798 5.58754L261.888 5.06577M261.888 5.06577C261.798 5.58754 261.798 5.58758 261.798 5.58761L261.799 5.58769L261.799 5.58784L261.801 5.58819L261.807 5.58905L261.821 5.59135C261.832 5.59309 261.847 5.59525 261.865 5.59756C261.901 5.60217 261.951 5.60745 262.011 5.61137C262.13 5.61914 262.295 5.62182 262.483 5.60118C262.852 5.5608 263.366 5.42403 263.764 4.99779L263.764 4.99781M261.888 5.06577L263.764 4.99781M263.764 4.99781L263.768 4.99386M263.764 4.99781L263.768 4.99386M263.768 4.99386L264.859 3.80181L264.859 3.80184M263.768 4.99386L264.859 3.80184M264.859 3.80184L264.864 3.79659M264.859 3.80184L264.864 3.79659M264.864 3.79659C265.213 3.4046 266.091 3.13653 266.937 3.72825C267.719 4.28827 268.474 4.88838 269.198 5.52635C269.535 5.8333 270.052 6.34434 270.492 6.78653C270.712 7.00681 270.91 7.20752 271.054 7.35346L271.225 7.52711L271.273 7.57627L271.29 7.59285L271.291 7.59393C271.544 7.86025 271.674 8.15539 271.697 8.46043C271.722 8.77155 271.639 9.13271 271.398 9.52358L271.333 9.62953M264.864 3.79659L271.333 9.62953M271.333 9.62953C270.757 10.4601 270.063 11.1951 269.275 11.8098L269.27 11.8137C269.269 11.8142 269.269 11.8148 269.268 11.8153C269.261 11.8197 269.256 11.824 269.25 11.8281L269.247 11.8305C268.545 12.337 267.923 12.5662 267.372 12.5839L267.357 12.5844L267.342 12.5857C267.28 12.5912 267.219 12.5896 267.158 12.581L267.142 12.5788L267.126 12.5775C266.942 12.5628 266.761 12.5246 266.587 12.4639L266.567 12.4274L266.386 12.3563C265.422 11.9789 263.777 11.0839 261.011 9.16231L261.009 9.16078C259.427 8.07383 257.936 6.85005 256.553 5.50247L256.553 5.50237C255.864 4.83115 255.212 4.11948 254.602 3.37086C254.602 3.37069 254.602 3.37052 254.601 3.37035L254.536 3.28953L254.469 3.20767L254.403 3.12582L254.403 3.12577L254.397 3.11909C254.386 3.10532 254.377 3.09436 254.365 3.07971C254.358 3.07016 254.349 3.05904 254.337 3.04455C253.73 2.29269 253.165 1.50532 252.645 0.686318L252.645 0.686202C251.602 -0.956862 250.694 -2.68853 249.932 -4.4903L249.931 -4.49256C248.58 -7.64628 248.011 -9.47942 247.818 -10.5331L247.783 -10.7207L247.752 -10.7475C247.722 -10.9433 247.716 -11.1425 247.735 -11.3405L247.737 -11.357L247.737 -11.3737C247.739 -11.4403 247.749 -11.5064 247.765 -11.5707L247.768 -11.583L247.771 -11.5955C247.889 -12.1681 248.223 -12.7707 248.824 -13.4013L248.825 -13.4025L271.333 9.62953ZM271.347 9.63432L271.347 9.63435L271.347 9.63432Z" stroke="#FF6F1D" stroke-width="1.05954"/>
<rect x="0.483313" y="0.575534" width="66.771" height="69.1105" rx="14.001" transform="matrix(0.995951 0.0898927 -0.08364 0.996496 229.804 -36.8989)" stroke="#FF6E1D" stroke-width="1.05954"/>
</svg>
